<ttFont>
          <CharString index="0">
            rmoveto
            161 91 89 172 26 hvcurveto
            4 29 3 26 25 vvcurveto
            129 -1 -86 80 -137 -61 callsubr
            6 86 rmoveto
            -82 -1 -43 43 -2 75 rrcurveto
            20 1 24 4 25 vhcurveto
            134 19 53 59 100 hhcurveto
            82 43 -42 -76 2 hvcurveto
            -20 -2 -24 -3 -25 vhcurveto
            -19 -134 -53 -59 -100 1 rrcurveto
            return
          </CharString>
          <CharString index="1">
            117 hlineto
            91 167 rlineto
            317 hlineto
            34 -167 rlineto
            114 hlineto
            -145 686 rlineto
            -141 hlineto
            -127 -424 rmoveto
            103 187 24 44 34 65 18 33 rlinecurve
            5 hlineto
            7 -35 10 -65 9 -45 36 -184 rcurveline
            return
          </CharString>
          <CharString index="2">
            -107 callsubr
            endchar
          </CharString>
          <CharString index="3">
            hlineto
            -76 -434 -60 callsubr
            -20 -75 -58 -110 hhcurveto
            -97 -52 44 86 14 2 18 2 14 hvcurveto
            75 428 rlineto
            -110 hlineto
            -74 -424 rlineto
            -4 -22 -2 -22 -19 vvcurveto
            return
          </CharString>
          <CharString index="4">
            -100 -18 -76 -57 -77 hhcurveto
            -44 -30 16 51 15 2 63 callgsubr
            -59 -338 rlineto
            -5 -26 -3 -25 -20 vvcurveto
            -94 63 -35 92 return
          </CharString>
          <CharString index="5">
            60 hlineto
            5 27 rlineto
            38 3 39 19 45 vvcurveto
            41 -50 9 -39 -22 -33 -3 -5 -23 vhcurveto
            -7 -41 rlineto
            60 hlineto
            18 11 -3 -11 return
          </CharString>
          <CharString index="6">
            -62 callgsubr
            -19 -40 -34 -25 -49 -12 rrcurveto
            30 -38 -52 16 -62 -61 callsubr
            161 91 89 172 26 hvcurveto
            4 29 3 26 25 vvcurveto
            44 -11 39 -19 32 vhcurveto
            82 30 47 62 15 96 9 54 rcurveline
            -230 -420 rmoveto
            -19 -134 -53 -59 -100 1 -82 -1 -43 43 -2 75 rrcurveto
            20 1 24 4 25 vhcurveto
            134 19 53 59 100 hhcurveto
            82 43 -42 -76 2 hvcurveto
            -20 -2 -24 -3 -25 vhcurveto
            return
          </CharString>
          <CharString index="7">
            -6 callgsubr
            hintmask 11101100
            218 -391 -60 136 vvcurveto
            65 76 31 101 vhcurveto
            hintmask 11101010
            83 56 -31 -55 -4 0 -9 -4 -15 hvcurveto
            109 hlineto
            4 22 1 16 12 vvcurveto
            111 -110 47 -147 -147 -136 -65 -139 vhcurveto
            hintmask 11101100
            -219 389 67 -147 vvcurveto
            -71 -71 -42 -125 vhcurveto
            hintmask 11110100
            -94 -61 32 63 14 5 17 2 9 hvcurveto
            -110 hlineto
            -5 -15 -3 -25 -18 vvcurveto
            -121 122 -50 155 vhcurveto
            return
          </CharString>
          <CharString index="8">
            rmoveto
            166 105 78 180 30 hvcurveto
            38 210 41 230 -70 callsubr
            -36 -205 rlineto
            -127 -23 -75 -66 -102 hhcurveto
            hintmask 11110100
            -72 -38 32 63 11 1 12 2 12 hvcurveto
            48 268 -70 callsubr
            -47 -263 rlineto
            -4 -23 -2 -21 -19 vvcurveto
            -112 65 -54 119 84 68 28 62 46 vhcurveto
            6 hlineto
            -8 -48 rlineto
            -107 -19 -64 -47 -99 hhcurveto
            hintmask 11111000
            -89 -38 27 59 hvcurveto
            -114 -10 hlineto
            -116 93 -54 140 vhcurveto
            endchar
          </CharString>
          <CharString index="9">
            44 -76 rlineto
            92 hlineto
            -82 135 rlineto
            -96 hlineto
            return
          </CharString>
          <CharString index="10">
            49 36 -33 54 hhcurveto
            63 35 51 59 10 hvcurveto
            -67 hlineto
            -54 callgsubr
            -49 -36 33 -54 hhcurveto
            -63 -34 -51 -59 -10 hvcurveto
            return
          </CharString>
          <CharString index="11">
            100 18 76 57 76 hhcurveto
            45 30 -16 -51 -15 -2 -18 -3 -19 hvcurveto
            -58 -331 rlineto
            103 hlineto
            59 338 rlineto
            5 26 3 25 20 vvcurveto
            94 -63 35 -92 return
          </CharString>
          <CharString index="12">
            rmoveto
            168 136 82 178 31 hvcurveto
            -109 hlineto
            -110 -20 -88 -56 -120 hhcurveto
            -117 -57 54 123 36 4 36 9 43 hvcurveto
            142 31 92 88 147 hhcurveto
            93 59 -42 -88 -11 -2 -14 -2 -13 hvcurveto
            113 hlineto
            3 20 2 19 17 vvcurveto
            138 -110 68 -159 -98 -82 -28 -50 -63 vhcurveto
            -100 -79 -51 -134 -155 vvcurveto
            -180 101 -84 189 vhcurveto
            endchar
          </CharString>
          <CharString index="13">
            105 hlineto
            77 441 4 22 4 28 3 16 rlinecurve
            5 1 7 -12 12 -24 11 -21 rlinecurve
            245 -451 rlineto
            99 hlineto
            121 686 rlineto
            -105 hlineto
            -77 -440 -3 -18 -4 -28 -3 -15 rlinecurve
            -4 hlineto
            -6 10 -12 24 -8 16 -248 451 rcurveline
            -102 hlineto
            return
          </CharString>
          <CharString index="14">
            rmoveto
            3 16 1 16 14 vvcurveto
            135 -122 65 -168 -123 -99 -41 -71 -69 vhcurveto
            -77 -79 -40 -117 -136 vvcurveto
            -175 101 -91 185 101 80 30 64 66 vhcurveto
            hintmask 01111110
            -82 81 vlineto
            64 362 rlineto
            -342 58 callsubr
            232 hlineto
            -1 -6 rlineto
            hintmask 10111110
            -100 -12 -98 -80 -146 hhcurveto
            -117 -63 52 127 37 5 36 9 43 hvcurveto
            144 32 100 83 153 hhcurveto
            100 70 -40 -84 -8 -1 -10 -2 -10 hvcurveto
            endchar
          </CharString>
          <CharString index="15">
            rmoveto
            102 hlineto
            69 76 -98 callsubr
            return
          </CharString>
          <CharString index="16">
            -7 callsubr
            hintmask 11101100
            169 -287 -51 95 vvcurveto
            28 27 40 90 vhcurveto
            hintmask 11101010
            67 26 -27 -35 -6 -1 -7 -1 -6 hvcurveto
            100 hlineto
            2 4 5 21 17 vvcurveto
            71 -72 51 -126 -127 -98 -64 -109 vhcurveto
            hintmask 11101100
            -162 285 52 -108 vvcurveto
            -52 -63 -25 -65 vhcurveto
            hintmask 11110100
            -60 -48 21 51 3 1 11 2 9 hvcurveto
            -101 hlineto
            0 -7 -22 -22 vvcurveto
            -74 66 -59 151 vhcurveto
            return
          </CharString>
          <CharString index="17">
            -735 -107 callsubr
            return
          </CharString>
          <CharString index="18">
            rmoveto
            137 75 87 121 19 hvcurveto
            -99 hlineto
            -66 -12 -42 -58 -81 hhcurveto
            -69 -35 37 89 24 2 27 6 31 hvcurveto
            94 17 44 80 96 hhcurveto
            72 21 -42 -54 -9 0 -9 -1 -10 hvcurveto
            104 hlineto
            2 14 1 14 12 vvcurveto
            102 -62 66 -140 -196 -72 -177 -170 -138 66 -65 147 vhcurveto
            endchar
          </CharString>
          <CharString index="19">
            111 hlineto
            48 275 rlineto
            238 hlineto
            92 -275 65 callgsubr
            -100 289 rlineto
            92 29 70 80 110 vvcurveto
            108 -68 70 -142 vhcurveto
            -337 hlineto
            55 -317 rmoveto
            38 222 rlineto
            239 hlineto
            67 34 -33 -57 -82 -58 -50 -79 hvcurveto
            return
          </CharString>
          <CharString index="20">
            -86 callsubr
            endchar
          </CharString>
          <CharString index="21">
            -735 -106 callgsubr
            return
          </CharString>
          <CharString index="22">
            rmoveto
            46 36 13 21 27 hvcurveto
            31 23 18 35 6 31 rrcurveto
            -70 hlineto
            return
          </CharString>
          <CharString index="23">
            rmoveto
            141 hlineto
            hintmask 11110000
            191 468 rlineto
            14 35 24 72 0 vvcurveto
            4 hlineto
            0 1 -66 2 -41 vhcurveto
            hintmask 11101000
            25 -468 rlineto
            141 hlineto
            314 -56 callgsubr
            -205 -465 rlineto
            -12 -27 -29 -75 0 vvcurveto
            -5 hlineto
            0 0 71 -2 31 vhcurveto
            hintmask 11110000
            -25 465 rlineto
            -151 hlineto
            -186 -465 rlineto
            -8 -19 -28 -83 0 vvcurveto
            -5 hlineto
            0 -3 76 -3 26 vhcurveto
            -45 465 rlineto
            -109 hlineto
            endchar
          </CharString>
          <CharString index="24">
            -745 rmoveto
            -106 callsubr
            return
          </CharString>
          <CharString index="25">
            -62 callgsubr
            hintmask 11011100
            -83 callgsubr
            hintmask 11101100
            -74 callsubr
            hintmask 11011100
            173 30 94 87 159 hhcurveto
            119 1 68 -65 -111 vvcurveto
            hintmask 11101100
            23 callgsubr
          </CharString>
          <CharString index="26">
            110 hlineto
            50 282 338 404 rlineto
            -124 hlineto
            -251 -306 rlineto
            -5 hlineto
            -148 306 rlineto
            -117 hlineto
            197 -404 rlineto
            return
          </CharString>
          <CharString index="27">
            25 23 vvcurveto
            124 -73 62 -136 -203 -81 -162 -183 return
          </CharString>
          <CharString index="28">
            -99 callgsubr
            endchar
          </CharString>
          <CharString index="29">
            rmoveto
            83 hlineto
            -33 callsubr
            -106 hlineto
            -1 -3 rlineto
            return
          </CharString>
          <CharString index="30">
            rmoveto
            22 32 6 8 19 hvcurveto
            12 70 rlineto
            -49 hlineto
            -23 -11 11 21 4 1 11 1 7 hvcurveto
            56 314 rlineto
            89 hlineto
            16 85 rlineto
            -90 hlineto
            34 147 -70 callsubr
            -26 -147 rlineto
            -64 hlineto
            -15 -85 rlineto
            64 hlineto
            -51 -289 rlineto
            -6 -37 -4 -24 -13 vvcurveto
            -48 25 -41 79 vhcurveto
            return
          </CharString>
          <CharString index="31">
            733 -92 callsubr
            return
          </CharString>
          <CharString index="32">
            283 hlineto
            116 96 39 70 68 hvcurveto
            70 73 38 106 127 vvcurveto
            186 -112 85 -192 vhcurveto
            return
          </CharString>
          <CharString index="33">
            80 30 46 62 15 95 9 54 rcurveline
            -230 -483 -57 callgsubr
            return
          </CharString>
          <CharString index="34">
            -71 callsubr
            -7 18 33 -6 29 hhcurveto
            return
          </CharString>
          <CharString index="35">
            -130 1 85 -81 136 hhcurveto
            return
          </CharString>
          <CharString index="36">
            rlineto
            30 5 18 16 31 hhcurveto
            52 hlineto
            13 72 rlineto
            7 -19 -32 6 -29 hhcurveto
            -100 -31 -65 -63 -11 hvcurveto
            -14 -77 rlineto
            -76 hlineto
            -15 -85 rlineto
            76 hlineto
            -87 -492 rlineto
            -30 -5 -18 -16 -31 hhcurveto
            -51 hlineto
            -13 -72 rlineto
            return
          </CharString>
          <CharString index="37">
            -53 callsubr
            hlineto
            return
          </CharString>
          <CharString index="38">
            rmoveto
            66 67 35 48 39 hvcurveto
            7 hlineto
            return
          </CharString>
          <CharString index="39">
            rmoveto
            -59 callsubr
            endchar
          </CharString>
          <CharString index="40">
            rmoveto
            305 hlineto
            13 77 rlineto
            -305 hlineto
            return
          </CharString>
          <CharString index="41">
            -75 callsubr
            -246 hlineto
            7 -591 -72 callgsubr
            return
          </CharString>
          <CharString index="42">
            rmoveto
            77 hlineto
            52 63 rlineto
            -17 36 46 -9 57 hhcurveto
            210 72 177 172 59 -15 45 -29 33 hvcurveto
            83 101 rlineto
            -77 hlineto
            -53 -64 rlineto
            18 -37 -46 9 -57 hhcurveto
            -210 -71 -178 -173 -59 14 -45 30 -33 hvcurveto
            71 87 rmoveto
            -6 16 -2 19 23 vvcurveto
            30 2 32 9 36 vhcurveto
            91 20 47 69 97 hhcurveto
            32 26 -6 -12 18 hvcurveto
            -129 -362 rmoveto
            -32 -25 5 11 -19 hvcurveto
            243 298 rlineto
            6 -16 2 -20 -22 vvcurveto
            -38 -5 -41 -12 -41 vhcurveto
            -81 -23 -48 -55 -87 hhcurveto
            endchar
          </CharString>
          <CharString index="43">
            rmoveto
            -58 callsubr
            return
          </CharString>
          <CharString index="44">
            rmoveto
            -71 -34 35 86 127 47 129 118 75 32 -41 -76 -125 -50 -135 -117 hvcurveto
            return
          </CharString>
          <CharString index="45">
            rmoveto
            70 43 49 64 46 -34 36 -52 -70 -43 -50 -65 -45 35 -35 51 hvcurveto
            6 49 rmoveto
            -27 -15 16 22 32 21 27 36 26 16 -17 -23 -31 -22 -26 -35 hvcurveto
            return
          </CharString>
          <CharString index="46">
            hhcurveto
            -161 -90 -89 -172 -27 hvcurveto
            -3 -28 -2 -26 -24 vvcurveto
            -72 callsubr
            return
          </CharString>
          <CharString index="47">
            rlineto
            -112 return
          </CharString>
          <CharString index="48">
            111 -52 callgsubr
            return
          </CharString>
          <CharString index="49">
            103 -50 callsubr
            return
          </CharString>
          <CharString index="50">
            621 -91 callgsubr
            return
          </CharString>
          <CharString index="51">
            -91 callgsubr
            -216 -10 callsubr
            return
          </CharString>
          <CharString index="52">
            -17 callsubr
            478 114 return
          </CharString>
          <CharString index="53">
            25 7 13 8 16 return
          </CharString>
          <CharString index="54">
            rlineto
            -111 return
          </CharString>
          <CharString index="55">
            -68 -48 callgsubr
            return
          </CharString>
          <CharString index="56">
            87 377 86 -12 -20 return
          </CharString>
          <CharString index="57">
            hlineto
            -73 callgsubr
            return
          </CharString>
          <CharString index="58">
            98 -39 callsubr
            return
          </CharString>
          <CharString index="59">
            -140 77 -65 156 return
          </CharString>
          <CharString index="60">
            83 166 78 140 83 return
          </CharString>
          <CharString index="61">
            -20 hstem
            13 528 vstem
            13 hmoveto
            103 hlineto
            28 161 109 87 93 -248 rlineto
            112 hlineto
            -132 319 215 207 rlineto
            -124 hlineto
            -251 -240 return
          </CharString>
          <CharString index="62">
            vvcurveto
            -57 46 -18 43 57 callsubr
            vhcurveto
            9 52 rlineto
            -29 hlineto
            -32 -11 19 21 35 27 31 22 18 hvcurveto
            return
          </CharString>
          <CharString index="63">
            370 hlineto
            7 40 rlineto
            return
          </CharString>
          <CharString index="64">
            4 callgsubr
            hstem
            569 114 vstem
            15 hmoveto
            -88 callsubr
            return
          </CharString>
          <CharString index="65">
            -71 80 vlineto
            85 481 81 30 47 63 15 95 rlinecurve
            9 54 rlineto
            return
          </CharString>
          <CharString index="66">
            -46 callgsubr
            38 132 -51 callgsubr
            return
          </CharString>
          <CharString index="67">
            119 hlineto
            110 167 rlineto
            326 hlineto
            17 -167 rlineto
            375 -38 callsubr
            -296 hlineto
            -21 208 rlineto
            303 -38 callsubr
            -330 hlineto
            -20 193 rlineto
            427 hlineto
            18 95 rlineto
            -601 hlineto
            -170 -424 rmoveto
            218 329 rlineto
            5 hlineto
            32 -329 rlineto
            endchar
          </CharString>
          <CharString index="68">
            -12 -23 callgsubr
            return
          </CharString>
          <CharString index="69">
            hlineto
            17 95 rlineto
            return
          </CharString>
          <CharString index="70">
            15 hmoveto
            -32 callgsubr
            return
          </CharString>
          <CharString index="71">
            15 hmoveto
            -94 callsubr
            return
          </CharString>
          <CharString index="72">
            154 -12 94 -61 -21 268 94 242 94 return
          </CharString>
          <CharString index="73">
            -12 86 379 85 return
          </CharString>
          <CharString index="74">
            -61 132 rlineto
            return
          </CharString>
          <CharString index="75">
            127 723 rlineto
            -103 hlineto
            return
          </CharString>
          <CharString index="76">
            rmoveto
            103 hlineto
            19 106 rlineto
            -103 hlineto
            return
          </CharString>
          <CharString index="77">
            -21 303 96 287 -20 hstem
            15 693 vstem
            15 hmoveto
            -14 callsubr
            return
          </CharString>
          <CharString index="78">
            -23 callsubr
            hstem
            15 716 49 callsubr
            33 192 176 142 160 -334 rlineto
            123 hlineto
            -197 409 310 277 rlineto
            -144 hlineto
            -404 -361 64 361 -70 callsubr
            return
          </CharString>
          <CharString index="79">
            202 -12 rmoveto
            62 58 29 53 41 hvcurveto
            7 hlineto
            return
          </CharString>
          <CharString index="80">
            hstemhm
            513 106.5 -91 105.5 return
          </CharString>
          <CharString index="81">
            112 hlineto
            21 -1 callgsubr
            return
          </CharString>
          <CharString index="82">
            -54 callsubr
            hhcurveto
            return
          </CharString>
          <CharString index="83">
            20 104 286 103 return
          </CharString>
          <CharString index="84">
            -21 686 -20 return
          </CharString>
          <CharString index="85">
            rmoveto
            102 hlineto
            return
          </CharString>
          <CharString index="86">
            3 callgsubr
            9 52 rlineto
            -29 hlineto
            -32 -11 19 21 hvcurveto
            hintmask 01100000
            35 27 31 22 18 vhcurveto
            4 -67 vlineto
            hintmask 10100000
            -36 -27 -39 -35 -57 vvcurveto
            -57 46 -18 43 vhcurveto
            endchar
          </CharString>
          <CharString index="87">
            hintmask 11100100
            14 hmoveto
            103 38 callsubr
            103 18 62 42 74 hhcurveto
            37 hlineto
            hintmask 11001100
            18 98 rlineto
            hintmask 11100100
            0 -20 8 -29 -70 -40 -46 -47 -26 vhcurveto
            -6 hlineto
            hintmask 11010100
            2 81 rlineto
            -81 hlineto
            return
          </CharString>
          <CharString index="88">
            -30 callgsubr
            70 132 hstem
            return
          </CharString>
          <CharString index="89">
            -182 84 109 88 427 -20 return
          </CharString>
          <CharString index="90">
            36 114 return
          </CharString>
          <CharString index="91">
            vstem
            4 -141 rmoveto
            58 hlineto
            81 151 19 107 -71 callgsubr
            -21 -117 rlineto
            45 hlineto
            return
          </CharString>
          <CharString index="92">
            -12 88 -55 14 callsubr
            return
          </CharString>
          <CharString index="93">
            111 hlineto
            53 303 rlineto
            351 hlineto
            -54 -303 rlineto
            -59 callsubr
            -50 -287 rlineto
            -351 38 callsubr
            -111 hlineto
            return
          </CharString>
          <CharString index="94">
            rlineto
            66 12 41 33 70 hhcurveto
            55 28 -26 -54 -8 -1 -14 -3 -20 hvcurveto
            102 hlineto
            5 26 1 15 23 vvcurveto
            101 -72 42 -117 -123 -79 -57 -142 -25 vhcurveto
            return
          </CharString>
          <CharString index="95">
            -49 callsubr
            70 132 -24 callgsubr
            return
          </CharString>
          <CharString index="96">
            -52 callsubr
            53 132 hstem
            -24 callsubr
            vstem
            return
          </CharString>
          <CharString index="97">
            -735 -69 callsubr
            return
          </CharString>
          <CharString index="98">
            -145 69 -63 113 vhcurveto
            30 87 -63 callsubr
            return
          </CharString>
          <CharString index="99">
            hstemhm
            41 114 -71 113 hintmask 11110100
            return
          </CharString>
          <CharString index="100">
            rmoveto
            121 113 53 133 hvcurveto
            return
          </CharString>
          <CharString index="101">
            48 callgsubr
            469 115 return
          </CharString>
          <CharString index="102">
            -21 450 88 -12 -20 return
          </CharString>
          <CharString index="103">
            -68 callgsubr
            94 43 callgsubr
            0 132 13 callgsubr
            hintmask 0000000000000000
            hintmask 1100011000000000
            return
          </CharString>
          <CharString index="104">
            39 18 28 26 47 vvcurveto
            57 -45 30 -71 -65 -55 -40 -62 -10 vhcurveto
            -3 45 callgsubr
            return
          </CharString>
          <CharString index="105">
            -69 callgsubr
            47 135 return
          </CharString>
          <CharString index="106">
            hstem
            15 653 vstem
            return
          </CharString>
          <CharString index="107">
            -21 432 106 -12 -20 24 -20 return
          </CharString>
          <CharString index="108">
            178 200 -115 200 rlineto
            -80 hlineto
            88 -200 rlineto
            return
          </CharString>
          <CharString index="109">
            -69 callgsubr
            59 72 return
          </CharString>
          <CharString index="110">
            320 0 119 456 111 return
          </CharString>
          <CharString index="111">
            vstem
            121 7 callsubr
            -127 24 callsubr
            return
          </CharString>
          <CharString index="112">
            -60 -48 21 51 3 1 11 2 9 hvcurveto
            -101 hlineto
            0 -7 -22 -22 vvcurveto
            -74 66 -59 151 vhcurveto
            endchar
          </CharString>
          <CharString index="113">
            rmoveto
            103 187 24 44 34 65 18 33 rlinecurve
            5 hlineto
            7 -35 10 -65 9 -45 36 -184 rcurveline
            endchar
          </CharString>
          <CharString index="114">
            617 -31 callsubr
            return
          </CharString>
          <CharString index="115">
            -5 callsubr
            hstemhm
            414 107 return
          </CharString>
          <CharString index="116">
            hstemhm
            -38 callgsubr
            return
          </CharString>
          <CharString index="117">
            -18 18 99 -207 -17 49 193 rlineto
            -94 hlineto
            -19 -193 -200 17 -18 -99 206 18 return
          </CharString>
          <CharString index="118">
            rmoveto
            -33 callsubr
            -106 hlineto
            -1 -3 85 -129 rlineto
            return
          </CharString>
          <CharString index="119">
            hstemhm
            -55 callsubr
            return
          </CharString>
          <CharString index="120">
            -107 -182 78 630 -20 return
          </CharString>
          <CharString index="121">
            17 callsubr
            85 132 return
          </CharString>
          <CharString index="122">
            129 -1 3 rlineto
            return
          </CharString>
          <CharString index="123">
            -12 33 callsubr
            return
          </CharString>
          <CharString index="124">
            -21 526 -20 return
          </CharString>
          <CharString index="125">
            vstem
            76 428 rmoveto
            58 hlineto
            80 151 19 107 -70 callsubr
            -21 -117 rlineto
            44 hlineto
            return
          </CharString>
          <CharString index="126">
            28 callgsubr
            -95 132 9 callsubr
            hintmask 00000000
            hintmask 11011100
            return
          </CharString>
          <CharString index="127">
            -182 82 121 17 callsubr
            return
          </CharString>
          <CharString index="128">
            hstem
            572 114 vstem
            return
          </CharString>
          <CharString index="129">
            rmoveto
            472 hlineto
            16 89 rlineto
            -472 hlineto
            endchar
          </CharString>
          <CharString index="130">
            hstemhm
            -5 109 -39 101 195.5 104.5 279 104 return
          </CharString>
          <CharString index="131">
            -723 -64 callsubr
            return
          </CharString>
          <CharString index="132">
            hstemhm
            35 107 hintmask 10111000
            return
          </CharString>
          <CharString index="133">
            rmoveto
            117 hlineto
            91 167 rlineto
            317 hlineto
            34 -167 rlineto
            114 hlineto
            return
          </CharString>
          <CharString index="134">
            -54 callgsubr
            -49 -36 33 -54 hhcurveto
            -63 -34 -51 -59 -10 hvcurveto
            66 hlineto
            return
          </CharString>
          <CharString index="135">
            -52 -61 -26 12 -24 21 -16 vhcurveto
            return
          </CharString>
          <CharString index="136">
            213 45 38 -20 32 -20 hstemhm
            return
          </CharString>
          <CharString index="137">
            -107 -12 84 382 84 return
          </CharString>
          <CharString index="138">
            22 42 hhcurveto
            33 10 -19 -17 -84 -201 -41 -23 -121 hvcurveto
            endchar
          </CharString>
          <CharString index="139">
            -29 hlineto
            -11 -60 rlineto
            31 hlineto
            29 26 -9 -30 -43 -32 -18 -37 hvcurveto
            return
          </CharString>
          <CharString index="140">
            94 522 94 return
          </CharString>
          <CharString index="141">
            -182 85 118 -21 441 85 return
          </CharString>
          <CharString index="142">
            141 rlineto
            -58 hlineto
            -80 -151 rlineto
            return
          </CharString>
          <CharString index="143">
            -291 591 132 hstem
            return
          </CharString>
          <CharString index="144">
            43 -30 callgsubr
            return
          </CharString>
          <CharString index="145">
            hlineto
            51 287 rlineto
            return
          </CharString>
          <CharString index="146">
            77 -44 77 hstemhm
            return
          </CharString>
          <CharString index="147">
            -13 0 95 496 95 50 132 hstem
            -37 678 vstem
            return
          </CharString>
          <CharString index="148">
            -367 -230 61 callgsubr
            return
          </CharString>
          <CharString index="149">
            -173 105 56 return
          </CharString>
          <CharString index="150">
            24 hmoveto
            -59 callsubr
            return
          </CharString>
          <CharString index="151">
            -24 -14 -81 rcurveline
            -91 hlineto
            33 41 67 99 36 87 rrcurveto
            return
          </CharString>
          <CharString index="152">
            -358 -152 -21 896 -20 hstem
            91 84 vstem
            91 return
          </CharString>
          <CharString index="153">
            -72 -75 -67 -41 -94 -3 vhcurveto
            67 hlineto
            5 23 rlineto
            30 return
          </CharString>
          <CharString index="154">
            hlineto
            -52 -293 rlineto
            return
          </CharString>
          <CharString index="155">
            -211 rlineto
            -189 hlineto
            -16 -90 rlineto
            189 hlineto
            return
          </CharString>
          <CharString index="156">
            vstem
            47 callgsubr
            return
          </CharString>
          <CharString index="157">
            -107 -12 82 385 83 return
          </CharString>
          <CharString index="158" raw="1">
            fbeea076 0b  
          </CharString>
          <CharString index="159">
            30 callgsubr
            -111 hlineto
            return
          </CharString>
          <CharString index="160">
            27 15 30 hhcurveto
            25 20 -10 -27 -38 -34 -18 return
          </CharString>
          <CharString index="161">
            rmoveto
            21 hlineto
            199 189 return
          </CharString>
          <CharString index="162">
            -12 87 -75 75 377 86 return
          </CharString>
          <CharString index="163">
            hstem
            66 585 vstem
            return
          </CharString>
          <CharString index="164">
            21 22 5 9 24 return
          </CharString>
          <CharString index="165">
            hlineto
            -17 -94 rlineto
            return
          </CharString>
          <CharString index="166">
            71 -80 vlineto
            endchar
          </CharString>
          <CharString index="167">
            56 155 42 117 vvcurveto
            54 -35 35 return
          </CharString>
          <CharString index="168">
            -339 rmoveto
            90 50 55 65 30 -13 26 return
          </CharString>
          <CharString index="169">
            -30 callgsubr
            70 59 callgsubr
            return
          </CharString>
          <CharString index="170">
            69.5 112.5 return
          </CharString>
          <CharString index="171">
            82 463 rlineto
            return
          </CharString>
        <CharString name=".notdef">
          -123 0 50 600 50 hstem
          0 50 400 50 vstem
          0 vmoveto
          500 700 -500 hlineto
          250 -305 rmoveto
          -170 255 rlineto
          340 hlineto
          -370 -555 rmoveto
          510 vlineto
          170 -255 rlineto
          230 -255 rmoveto
          -170 255 170 255 rlineto
          -370 -555 rmoveto
          170 255 170 -255 rlineto
          endchar
        </CharString>
        <CharString name="A">
          -69 callgsubr
          16 callgsubr
          -45 hmoveto
          -106 callsubr
          endchar
        </CharString>
        <CharString name="AE">
          376 0 95 72 95 41 18 callgsubr
          hstem
          -61 1062 vstem
          -61 hmoveto
          -40 callsubr
        </CharString>
        <CharString name="AEacute">
          376 0 95 72 95 41 18 callgsubr
          50 132 hstem
          -61 1062 vstem
          539 736 -95 callgsubr
          -707 -868 rmoveto
          -40 callsubr
        </CharString>
        <CharString name="Aacute">
          -69 callgsubr
          50 132 16 callgsubr
          377 736 -95 callgsubr
          -529 -868 -102 callgsubr
        </CharString>
        <CharString name="Abreve">
          2 callsubr
          hstem
          286 72 vstem
          425 745 -97 callgsubr
          endchar
        </CharString>
        <CharString name="Acircumflex">
          -2 callsubr
          16 callgsubr
          265 -76 callsubr
          -439 -868 -102 callgsubr
        </CharString>
        <CharString name="Adieresis">
          -69 callgsubr
          80 102 16 callgsubr
          285 -65 callgsubr
          -542 -868 -102 callgsubr
        </CharString>
        <CharString name="Agrave">
          -69 callgsubr
          50 132 16 callgsubr
          383 736 -78 callsubr
          -343 -865 -102 callgsubr
        </CharString>
        <CharString name="Amacron">
          -69 callgsubr
          81 77 16 callgsubr
          279 767 -67 callsubr
          -337 -844 -102 callgsubr
        </CharString>
        <CharString name="Aogonek">
          60 -182 66 137 -21 167 95 329 95 hstem
          444 93 vstem
          524 -182 rmoveto
          23 25 4 10 27 hvcurveto
          9 52 rlineto
          -30 hlineto
          -29 -12 19 21 31 28 27 29 18 hvcurveto
          34 hlineto
          -145 686 rlineto
          -141 hlineto
          -387 -686 65 callgsubr
          91 167 rlineto
          317 hlineto
          34 -167 rlineto
          -38 -24 -32 -35 -48 vvcurveto
          -57 42 -18 38 vhcurveto
          -309 444 6 callsubr
        </CharString>
        <CharString name="Aring">
          -69 callgsubr
          22 49 97 49 hstemhm
          334 50 99 50 hintmask 00000000
          hintmask 11111110
          420 708 -62 callsubr
          -471 -757 26 callsubr
          hintmask 11101110
          -145 686 rlineto
          -141 hlineto
          -127 -424 6 callsubr
        </CharString>
        <CharString name="Aringacute">
          60 21 -21 167 95 429 -20 118 49 23 132 hstemhm
          321 50 99 49 hintmask 00000000
          hintmask 11111110
          396 861 rmoveto
          93 hlineto
          126 15 callsubr
          -112 hlineto
          -547 -993 26 callsubr
          -143 674 rlineto
          hintmask 11110110
          23 18 11 30 34 vvcurveto
          46 -33 36 -52 -70 -43 -50 -65 -18 6 -16 10 -12 vhcurveto
          76 14 rmoveto
          -27 -15 17 22 32 21 27 36 26 16 -18 -22 -31 -22 -27 -35 hvcurveto
          -198 -429 6 callsubr
        </CharString>
        <CharString name="Atilde">
          -69 callgsubr
          72 110 16 callgsubr
          263 758 rmoveto
          66 hlineto
          -54 callsubr
          -97 callsubr
          -308 -758 -102 callgsubr
        </CharString>
        <CharString name="B">
          60 0 95 209 95 192 95 hstemhm
          500 112 -76 113 hintmask 11110000
          15 hmoveto
          361 hlineto
          123 113 62 149 79 -44 48 -62 18 hvcurveto
          4 vlineto
          hintmask 11101000
          78 20 65 68 87 vvcurveto
          101 -79 50 -124 vhcurveto
          -310 hlineto
          60 -287 rmoveto
          34 192 rlineto
          216 hlineto
          54 36 -23 -58 -62 -48 -49 -80 hvcurveto
          -265 -304 rmoveto
          37 209 rlineto
          hintmask 11110000
          220 hlineto
          66 34 -31 -58 -89 -59 -31 -70 hvcurveto
          endchar
        </CharString>
        <CharString name="C">
          50 callgsubr
          hstem
          -17 callsubr
          435 114 vstem
          326 -12 -95 callsubr
        </CharString>
        <CharString name="CR">
          -346 endchar
        </CharString>
        <CharString name="Cacute">
          50 callgsubr
          38 132 hstem
          -17 callsubr
          435 114 vstem
          395 736 -95 callgsubr
          -176 -880 -95 callsubr
        </CharString>
        <CharString name="Cacute.loclPLK">
          50 callgsubr
          38 132 hstem
          -17 callsubr
          435 114 vstem
          388 736 -55 callgsubr
          -109 -880 -95 callsubr
        </CharString>
        <CharString name="Ccaron">
          50 callgsubr
          35 135 hstem
          -17 callsubr
          435 114 vstem
          394 733 -93 callgsubr
          14 -880 -95 callsubr
        </CharString>
        <CharString name="Ccedilla">
          98 15 callgsubr
          25 92 522 94 48 callgsubr
          188 84 163 114 hintmask 10011111
          694 436 rmoveto
          3 20 2 19 17 vvcurveto
          138 -110 68 -159 -98 -82 -28 -50 -63 vhcurveto
          -100 -79 -51 -134 -155 vvcurveto
          -164 84 -84 158 -14 vhcurveto
          hintmask 10111111
          -24 -67 rlineto
          48 -28 callgsubr
          hintmask 01011111
          -9 -49 rlineto
          hintmask 10111111
          -5 28 39 -3 35 hhcurveto
          57 76 14 73 41 -38 18 -46 1 hvcurveto
          8 23 159 7 126 82 30 171 rlinecurve
          -109 hlineto
          hintmask 10011111
          -110 -20 -88 -56 -120 hhcurveto
          -117 -57 54 123 36 4 36 9 43 hvcurveto
          142 31 92 88 147 hhcurveto
          93 59 -42 -88 -11 -2 -14 -2 -13 hvcurveto
          endchar
        </CharString>
        <CharString name="Ccircumflex">
          50 callgsubr
          35 135 hstem
          -17 callsubr
          435 11 callgsubr
          -86 -880 -95 callsubr
        </CharString>
        <CharString name="Cdotaccent">
          50 callgsubr
          65 105 hstem
          -17 callsubr
          435 114 vstem
          396 763 -84 callgsubr
          -89 -880 -95 callsubr
        </CharString>
        <CharString name="D">
          98 0 95 496 95 21 callsubr
          15 hmoveto
          -66 callsubr
          endchar
        </CharString>
        <CharString name="Dcaron">
          98 0 95 496 95 47 135 21 callsubr
          347 733 -93 callgsubr
          -250 -868 rmoveto
          -66 callsubr
          endchar
        </CharString>
        <CharString name="Dcroat">
          -63 callgsubr
        </CharString>
        <CharString name="E">
          -60 callgsubr
          -1 callsubr
          15 hmoveto
          -101 callgsubr
          endchar
        </CharString>
        <CharString name="Eacute">
          -60 callgsubr
          50 132 -1 callsubr
          370 736 -95 callgsubr
          -462 -868 rmoveto
          -101 callgsubr
          endchar
        </CharString>
        <CharString name="Ebreve">
          -60 callgsubr
          59 72 hstem
          279 72 vstem
          418 -74 callgsubr
          -403 -745 rmoveto
          -101 callgsubr
          endchar
        </CharString>
        <CharString name="Ecaron">
          -2 callgsubr
          -1 callsubr
          369 733 -93 callgsubr
          -272 -868 rmoveto
          -101 callgsubr
          endchar
        </CharString>
        <CharString name="Ecircumflex">
          -2 callgsubr
          -1 callsubr
          258 -76 callsubr
          -372 -868 rmoveto
          -101 callgsubr
          endchar
        </CharString>
        <CharString name="Edieresis">
          -60 callgsubr
          80 102 -1 callsubr
          278 -65 callgsubr
          -475 -868 rmoveto
          -101 callgsubr
          endchar
        </CharString>
        <CharString name="Edotaccent">
          -60 callgsubr
          77 105 -1 callsubr
          371 763 -84 callgsubr
          -375 -868 rmoveto
          -101 callgsubr
          endchar
        </CharString>
        <CharString name="Egrave">
          -60 callgsubr
          50 132 -1 callsubr
          376 736 -78 callsubr
          -276 -865 rmoveto
          -101 callgsubr
          endchar
        </CharString>
        <CharString name="Emacron">
          -60 callgsubr
          81 77 -1 callsubr
          272 767 -67 callsubr
          -270 -844 rmoveto
          -101 callgsubr
          endchar
        </CharString>
        <CharString name="Eng">
          98 -182 82 121 -21 512 174 0 -20 hstemhm
          15 693 hintmask 11011000
          441 -182 rmoveto
          96 29 64 63 12 hvcurveto
          130 741 rlineto
          -105 hlineto
          -77 -440 -3 -18 -4 -28 -3 -15 rlinecurve
          -4 hlineto
          -6 10 -12 24 -8 16 -248 451 rcurveline
          -102 hlineto
          -121 -686 rlineto
          105 hlineto
          hintmask 11101000
          79 445 2 21 3 30 1 16 rlinecurve
          5 hlineto
          9 -12 8 -23 12 -20 245 -450 rcurveline
          -11 -60 rlineto
          -30 -5 -17 -17 -31 hhcurveto
          -45 hlineto
          -12 -69 rlineto
          hintmask 11011000
          -6 18 33 -7 27 hhcurveto
          endchar
        </CharString>
        <CharString name="Eogonek">
          43 -182 66 116 95 208 18 callgsubr
          hstem
          367 92 vstem
          456 3 callgsubr
          10 52 rlineto
          -30 hlineto
          -29 -15 16 18 34 47 31 47 17 hvcurveto
          17 95 rlineto
          -427 hlineto
          36 208 rlineto
          377 -38 callsubr
          -377 hlineto
          33 193 rlineto
          421 hlineto
          18 95 rlineto
          -532 hlineto
          -121 -686 rlineto
          434 hlineto
          -50 -25 -32 -33 -52 vvcurveto
          -54 47 -18 42 vhcurveto
          endchar
        </CharString>
        <CharString name="Eth">
          -63 callgsubr
        </CharString>
        <CharString name="Euro">
          -68 -12 85 167 70 70 70 163 85 -12 -20 hstemhm
          -2 583 hintmask 11110100
          363 -12 rmoveto
          43 35 8 4 20 hvcurveto
          14 83 rlineto
          -3 -18 -34 -7 -36 hhcurveto
          -83 -110 34 133 -11 hvcurveto
          248 hlineto
          12 70 rlineto
          -259 hlineto
          1 21 5 30 6 19 rrcurveto
          260 hlineto
          12 70 rlineto
          -247 hlineto
          121 53 117 42 102 hhcurveto
          31 28 -7 -3 15 hvcurveto
          hintmask 11101100
          14 83 rlineto
          hintmask 11110100
          4 -19 -36 8 -47 hhcurveto
          -147 -157 -68 -180 -68 hvcurveto
          -73 hlineto
          -12 -70 rlineto
          65 hlineto
          -5 -21 -5 -29 -2 -20 rrcurveto
          -66 hlineto
          -11 -70 rlineto
          75 hlineto
          -185 8 137 -67 145 hhcurveto
          endchar
        </CharString>
        <CharString name="F">
          -13 21 -21 293 95 203 95 hstem
          15 611 49 callsubr
          51 293 rlineto
          343 -38 callsubr
          -343 hlineto
          35 203 rlineto
          379 hlineto
          18 95 rlineto
          -490 hlineto
          endchar
        </CharString>
        <CharString name="G">
          -35 callsubr
          -6 callsubr
          hintmask 10111100
          730 452 rmoveto
          3 16 1 16 14 vvcurveto
          135 -122 65 -168 -123 -99 -41 -71 -69 vhcurveto
          -77 -79 -40 -117 -136 vvcurveto
          -175 101 -91 185 101 80 30 64 66 vhcurveto
          hintmask 01111100
          -82 81 vlineto
          64 362 rlineto
          -342 58 callsubr
          232 hlineto
          -1 -6 rlineto
          hintmask 10111100
          -100 -12 -98 -80 -146 hhcurveto
          -117 -63 52 127 37 5 36 9 43 hvcurveto
          144 32 100 83 153 hhcurveto
          100 70 -40 -84 -8 -1 -10 -2 -10 hvcurveto
          endchar
        </CharString>
        <CharString name="G_tilde.loclGUA">
          -35 callsubr
          60 110 -6 callsubr
          hintmask 10111110
          383 791 rmoveto
          -97 callsubr
          66 hlineto
          -25 callsubr
          347 -339 -93 callsubr
        </CharString>
        <CharString name="Gbreve">
          -35 callsubr
          47 72 48 callgsubr
          154 72 243 115 hintmask 10111111
          443 -74 callgsubr
          287 -293 rmoveto
          3 16 1 16 14 vvcurveto
          135 -122 65 -168 -123 -99 -41 -71 -69 vhcurveto
          -77 -79 -40 -117 -136 vvcurveto
          -175 101 -91 185 101 80 30 64 66 vhcurveto
          hintmask 01111111
          -82 81 vlineto
          64 362 rlineto
          -342 58 callsubr
          232 hlineto
          -1 -6 rlineto
          hintmask 10111111
          -100 -12 -98 -80 -146 hhcurveto
          -117 -63 52 127 37 5 36 9 43 hvcurveto
          144 32 100 83 153 hhcurveto
          100 70 -40 -84 -8 -1 -10 -2 -10 hvcurveto
          endchar
        </CharString>
        <CharString name="Gcaron">
          -35 callsubr
          35 135 -6 callsubr
          hintmask 10111110
          490 733 rmoveto
          129 135 rlineto
          -102 hlineto
          -67 -76 -45 76 rlineto
          -93 hlineto
          82 -135 rlineto
          336 -281 -93 callsubr
        </CharString>
        <CharString name="Gcircumflex">
          -35 callsubr
          35 135 -6 callsubr
          hintmask 10111110
          454 809 rmoveto
          -98 callsubr
          -129 -135 rlineto
          102 hlineto
          345 -281 -93 callsubr
        </CharString>
        <CharString name="Gcommaaccent">
          154 -146 94 40 94 -61 -21 268 94 242 94 -6 callsubr
          hintmask 11011110
          730 452 rmoveto
          3 16 1 16 14 vvcurveto
          135 -122 65 -168 -123 -99 -41 -71 -69 vhcurveto
          -77 -79 -40 -117 -136 vvcurveto
          -175 101 -91 185 101 80 30 64 66 vhcurveto
          hintmask 10111110
          -82 81 vlineto
          64 362 rlineto
          -342 58 callsubr
          232 hlineto
          -1 -6 rlineto
          hintmask 11011110
          -100 -12 -98 -80 -146 hhcurveto
          -117 -63 52 127 37 5 36 9 43 hvcurveto
          144 32 100 83 153 hhcurveto
          100 70 -40 -84 -8 -1 -10 -2 -10 hvcurveto
          -350 -598 rmoveto
          40 hlineto
          -56 -84 rlineto
          55 hlineto
          66 93 15 85 rlineto
          -103 hlineto
          endchar
        </CharString>
        <CharString name="Gdotaccent">
          -35 callsubr
          65 105 -6 callsubr
          hintmask 10111110
          517 868 rmoveto
          -102 hlineto
          -19 -105 rlineto
          102 hlineto
          232 -311 -93 callsubr
        </CharString>
        <CharString name="H">
          98 21 -30 callsubr
          endchar
        </CharString>
        <CharString name="Hbar">
          98 21 -21 303 96 121 78 -78 166 hstemhm
          15 744 hintmask 11011000
          47 callgsubr
          53 303 rlineto
          351 hlineto
          -54 -303 rlineto
          111 hlineto
          91 520 rlineto
          67 hlineto
          hintmask 11101000
          14 78 rlineto
          -67 40 callgsubr
          -350 40 callgsubr
          -67 hlineto
          hintmask 11011000
          -13 -78 rlineto
          67 hlineto
          89 -121 rmoveto
          21 121 rlineto
          351 hlineto
          -21 -121 rlineto
          endchar
        </CharString>
        <CharString name="Hcircumflex">
          98 21 -21 303 96 287 -20 67 135 hstem
          15 693 vstem
          271 -76 callsubr
          -385 -868 rmoveto
          -14 callsubr
          endchar
        </CharString>
        <CharString name="I">
          -14 callgsubr
          hstem
          24 232 vstem
          43 callsubr
          endchar
        </CharString>
        <CharString name="IJ">
          171 -12 94 -61 -23 callsubr
          hstemhm
          274 111 hintmask 00000000
          hintmask 01110000
          43 callsubr
          hintmask 10110000
          320 -698 -79 callgsubr
        </CharString>
        <CharString name="Iacute">
          -346 -19 callsubr
          24 358 vstem
          162 736 -95 callgsubr
          -245 -868 -68 callsubr
        </CharString>
        <CharString name="Iacute_J.loclNLD">
          171 -12 94 -61 -23 callsubr
          70 132 hstemhm
          274 111 hintmask 10111000
          162 736 -95 callgsubr
          420 -132 -95 callgsubr
          hintmask 01111000
          -772 -868 rmoveto
          -59 callsubr
          hintmask 10111000
          320 -698 -79 callgsubr
        </CharString>
        <CharString name="Ibreve">
          -14 callgsubr
          79 72 hstem
          71 72 vstem
          210 -74 callgsubr
          -186 -745 -68 callsubr
        </CharString>
        <CharString name="Icircumflex">
          -14 callgsubr
          67 135 hstem
          24 333 vstem
          50 -76 callsubr
          -155 -868 -68 callsubr
        </CharString>
        <CharString name="Idieresis">
          -14 callgsubr
          100 102 hstem
          24 355 vstem
          70 -65 callgsubr
          -258 -868 -68 callsubr
        </CharString>
        <CharString name="Idotaccent">
          -14 callgsubr
          97 105 hstem
          24 260 vstem
          163 763 -84 callgsubr
          -158 -868 -68 callsubr
        </CharString>
        <CharString name="Igrave">
          -346 -19 callsubr
          24 232 vstem
          168 736 -78 callsubr
          -59 -865 -68 callsubr
        </CharString>
        <CharString name="Imacron">
          -14 callgsubr
          101 77 hstem
          24 358 vstem
          64 767 -67 callsubr
          -53 -844 -68 callsubr
        </CharString>
        <CharString name="Iogonek">
          -346 -190 66 145 -23 callsubr
          hstem
          -38 93 vstem
          104 hmoveto
          31 -52 callgsubr
          -121 -686 rlineto
          8 hlineto
          -35 -26 -35 -35 -54 -45 callsubr
          endchar
        </CharString>
        <CharString name="Itilde">
          -14 callgsubr
          92 110 hstem
          24 373 vstem
          48 758 rmoveto
          66 hlineto
          -54 callsubr
          -97 callsubr
          -24 -758 -68 callsubr
        </CharString>
        <CharString name="J">
          -107 -39 callsubr
          hstem
          -4 111 vstem
          187 -12 -79 callgsubr
        </CharString>
        <CharString name="Jcircumflex">
          -107 -39 callsubr
          67 135 hstem
          -4 111 vstem
          299 -76 callsubr
          -241 -880 -79 callgsubr
        </CharString>
        <CharString name="K">
          60 21 -29 callsubr
          endchar
        </CharString>
        <CharString name="Kcommaaccent">
          60 -146 94 73 -29 callsubr
          67 -916 -70 callgsubr
        </CharString>
        <CharString name="L">
          0 96 590 -20 hstem
          15 497 vstem
          -37 callsubr
          endchar
        </CharString>
        <CharString name="Lacute">
          0 96 590 -20 70 132 hstem
          15 497 vstem
          153 736 -95 callgsubr
          -245 -868 rmoveto
          -32 callgsubr
          endchar
        </CharString>
        <CharString name="Lcaron">
          0 96 379 211 -102 102 hstemhm
          15 497 hintmask 10110000
          -37 callsubr
          hintmask 11010000
          199 -211 rmoveto
          54 hlineto
          hintmask 10110000
          46 callgsubr
          endchar
        </CharString>
        <CharString name="Lcommaaccent">
          -146 94 52 96 590 -20 hstem
          15 497 vstem
          -37 callsubr
          26 -916 -70 callgsubr
        </CharString>
        <CharString name="Ldot">
          0 96 313 117 160 -20 hstem
          15 497 vstem
          -37 callsubr
          186 -277 rmoveto
          -26 callsubr
          endchar
        </CharString>
        <CharString name="Lslash">
          0 96 590 -20 hstem
          -6 518 vstem
          27 hmoveto
          468 hlineto
          17 96 rlineto
          -358 hlineto
          42 236 177 105 16 88 -178 -105 47 266 rlineto
          -110 hlineto
          -60 -339 -79 -48 -15 -87 79 47 rlineto
          endchar
        </CharString>
        <CharString name="M">
          209 0 127 -106 -21 571 115 hstemhm
          15 804 hintmask 01110000
          15 hmoveto
          105 hlineto
          79 448 rlineto
          5 28 13 95 0 vvcurveto
          5 hlineto
          1 -9 2 -39 3 -24 75 -499 rcurveline
          99 hlineto
          253 499 13 27 13 36 4 9 rlinecurve
          6 hlineto
          -24 -123 -79 -448 rlineto
          110 hlineto
          121 686 rlineto
          -171 hlineto
          -222 -440 rlineto
          hintmask 10110000
          -18 -37 -29 -82 0 vvcurveto
          -5 hlineto
          0 -1 76 -6 43 vhcurveto
          -68 440 rlineto
          -163 hlineto
          endchar
        </CharString>
        <CharString name="N">
          98 -30 callgsubr
          hstem
          15 693 vstem
          -36 callsubr
          endchar
        </CharString>
        <CharString name="NULL">
          -624 endchar
        </CharString>
        <CharString name="Nacute">
          98 -19 callsubr
          15 693 vstem
          400 736 -95 callgsubr
          -492 -868 rmoveto
          -94 callsubr
          endchar
        </CharString>
        <CharString name="Nacute.loclPLK">
          98 -19 callsubr
          15 693 vstem
          393 736 -55 callgsubr
          -425 -868 rmoveto
          -94 callsubr
          endchar
        </CharString>
        <CharString name="Ncaron">
          98 -30 callgsubr
          67 135 hstem
          15 693 vstem
          399 733 -93 callgsubr
          -302 -868 rmoveto
          -94 callsubr
          endchar
        </CharString>
        <CharString name="Ncommaaccent">
          98 -146 94 73 -23 callsubr
          hstem
          15 693 vstem
          -36 callsubr
          86 -916 -70 callgsubr
        </CharString>
        <CharString name="Ntilde">
          98 -30 callgsubr
          92 110 hstem
          15 693 vstem
          286 758 rmoveto
          66 hlineto
          -54 callsubr
          -97 callsubr
          -271 -758 rmoveto
          -94 callsubr
          endchar
        </CharString>
        <CharString name="O">
          -46 callgsubr
          -51 callgsubr
          338 -11 -107 callgsubr
          endchar
        </CharString>
        <CharString name="OE">
          376 -12 94 -82 93 211 93 196 93 -82 94 48 callgsubr
          hintmask 00000000
          hintmask 10110100
          267 -12 rmoveto
          72 63 27 54 52 hvcurveto
          hintmask 01110100
          -12 -69 rlineto
          443 hlineto
          17 93 rlineto
          -333 hlineto
          37 211 rlineto
          275 hlineto
          16 93 rlineto
          -274 hlineto
          34 196 rlineto
          326 hlineto
          17 93 rlineto
          -437 hlineto
          hintmask 01101100
          -12 -69 rlineto
          54 -38 -60 27 -83 hhcurveto
          -165 -119 -119 -236 -39 hvcurveto
          -7 -41 -4 -38 -34 vvcurveto
          hintmask 10110100
          -161 84 -81 147 vhcurveto
          23 94 rmoveto
          -92 -48 46 110 30 4 35 6 40 hvcurveto
          hintmask 01101100
          184 33 70 77 116 hhcurveto
          84 51 -41 -117 -29 -4 -34 -7 -40 hvcurveto
          hintmask 10110100
          -192 -34 -76 -69 -103 hhcurveto
          endchar
        </CharString>
        <CharString name="Oacute">
          -41 callsubr
          395 736 -95 callgsubr
          -164 -879 -107 callgsubr
          endchar
        </CharString>
        <CharString name="Oacute.loclPLK">
          -41 callsubr
          388 736 -55 callgsubr
          -97 -879 -107 callgsubr
          endchar
        </CharString>
        <CharString name="Obreve">
          -46 callgsubr
          47 72 hstem
          -17 callsubr
          154 72 252 114 vstem
          443 -74 callgsubr
          -105 -756 -107 callgsubr
          endchar
        </CharString>
        <CharString name="Ocircumflex">
          8 callgsubr
          hstem
          36 114 478 11 callgsubr
          -74 -879 -107 callgsubr
          endchar
        </CharString>
        <CharString name="Odieresis">
          -46 callgsubr
          68 102 -51 callgsubr
          303 -65 callgsubr
          -177 -879 -107 callgsubr
          endchar
        </CharString>
        <CharString name="Ograve">
          -41 callsubr
          401 736 -78 callsubr
          22 -876 -107 callgsubr
          endchar
        </CharString>
        <CharString name="Ohorn">
          -46 callgsubr
          13 117 60 callgsubr
          hintmask 11111000
          728 828 -62 callgsubr
          hintmask 11011000
          -83 callgsubr
          hintmask 11111000
          -74 callsubr
          hintmask 11011000
          173 30 94 87 159 hhcurveto
          119 1 68 -65 -111 vvcurveto
          hintmask 11111000
          23 callgsubr
        </CharString>
        <CharString name="Ohungarumlaut">
          -41 callsubr
          321 736 -61 callgsubr
          -227 -879 -107 callgsubr
          endchar
        </CharString>
        <CharString name="Omacron">
          -46 callgsubr
          69 77 -51 callgsubr
          297 767 -67 callsubr
          28 -855 -107 callgsubr
          endchar
        </CharString>
        <CharString name="Oslash">
          154 16 callsubr
          37 -20 hstem
          37 114 477 114 vstem
          -1 -49 -4 callgsubr
          -59 callgsubr
        </CharString>
        <CharString name="Oslashacute">
          154 16 callsubr
          37 -20 21 132 hstemhm
          37 114 477 114 hintmask 00000000
          hintmask 11011100
          428 736 -95 callgsubr
          -536 -917 -4 callgsubr
          hintmask 11101100
          -59 callgsubr
        </CharString>
        <CharString name="Otilde">
          -46 callgsubr
          60 110 -51 callgsubr
          281 758 rmoveto
          66 hlineto
          -54 callsubr
          -97 callsubr
          57 -769 -107 callgsubr
          endchar
        </CharString>
        <CharString name="P">
          43 21 -21 255 95 241 95 hstem
          540 113 49 callsubr
          44 255 rlineto
          226 hlineto
          150 107 98 150 111 -64 72 -146 hvcurveto
          -307 hlineto
          51 -336 rmoveto
          42 241 rlineto
          208 hlineto
          70 33 -36 -63 -89 -63 -53 -82 hvcurveto
          endchar
        </CharString>
        <CharString name="Q">
          154 16 callsubr
          hstem
          37 114 477 114 vstem
          478 -130 rmoveto
          138 hlineto
          -125 145 rlineto
          156 59 95 157 203 vvcurveto
          177 -111 87 -193 -102 -86 -31 -56 -66 vhcurveto
          -95 -79 -52 -127 -154 vvcurveto
          -177 111 -86 191 12 15 1 1 11 vhcurveto
          -44 92 rmoveto
          -116 -66 55 124 37 4 34 10 43 hvcurveto
          144 34 101 85 145 hhcurveto
          117 66 -55 -125 -41 -5 -37 -11 -44 hvcurveto
          -139 -36 -102 -81 -141 hhcurveto
          endchar
        </CharString>
        <CharString name="R">
          98 21 -43 callsubr
          endchar
        </CharString>
        <CharString name="Racute">
          21 callgsubr
          50 132 51 callgsubr
          354 736 -95 callgsubr
          -446 -868 rmoveto
          -88 callsubr
          endchar
        </CharString>
        <CharString name="Rcaron">
          21 callgsubr
          47 135 51 callgsubr
          353 733 -93 callgsubr
          -256 -868 rmoveto
          -88 callsubr
          endchar
        </CharString>
        <CharString name="Rcommaaccent">
          98 -146 94 73 -43 callsubr
          -210 -599 -70 callgsubr
        </CharString>
        <CharString name="S">
          43 16 callsubr
          -44 callgsubr
          hintmask 00000000
          hintmask 11101000
          295 -12 -6 callgsubr
          hintmask 11011000
          218 -391 -60 136 vvcurveto
          65 76 31 101 vhcurveto
          hintmask 11010100
          83 56 -31 -55 -4 0 -9 -4 -15 hvcurveto
          109 hlineto
          4 22 1 16 12 vvcurveto
          111 -110 47 -147 -147 -136 -65 -139 vhcurveto
          hintmask 11011000
          -219 389 67 -147 vvcurveto
          -71 -71 -42 -125 vhcurveto
          hintmask 11101000
          -94 -61 32 63 14 5 17 2 9 hvcurveto
          -110 hlineto
          -5 -15 -3 -25 -18 vvcurveto
          -121 122 -50 155 vhcurveto
          endchar
        </CharString>
        <CharString name="Sacute">
          43 16 callsubr
          38 132 -44 callgsubr
          hintmask 11101100
          352 736 -95 callgsubr
          hintmask 11110100
          -164 -880 -100 callsubr
          endchar
        </CharString>
        <CharString name="Sacute.loclPLK">
          43 16 callsubr
          38 132 -44 callgsubr
          hintmask 11101100
          345 736 -55 callgsubr
          hintmask 11110100
          -97 -880 -100 callsubr
          endchar
        </CharString>
        <CharString name="Scaron">
          43 16 callsubr
          35 135 -44 callgsubr
          hintmask 11101100
          351 733 -93 callgsubr
          hintmask 11110100
          26 -880 -100 callsubr
          endchar
        </CharString>
        <CharString name="Scedilla">
          43 15 callgsubr
          24 93 522 94 hstemhm
          18 111 -38 114 111 83 81 116 -75 110 hintmask 1001101110000000
          267 -182 rmoveto
          56 76 14 73 hvcurveto
          hintmask 1011101110000000
          41 -37 18 -46 1 vhcurveto
          8 24 rlineto
          140 8 132 63 154 218 -391 -60 136 vvcurveto
          65 76 31 101 vhcurveto
          hintmask 1001101101000000
          83 56 -31 -55 -4 0 -9 -4 -15 hvcurveto
          109 hlineto
          4 22 1 16 12 vvcurveto
          111 -110 47 -147 -147 -136 -65 -139 vhcurveto
          hintmask 1001101110000000
          -219 389 67 -147 vvcurveto
          -71 -71 -42 -125 vhcurveto
          hintmask 1001110110000000
          -94 -61 32 63 14 5 17 2 9 hvcurveto
          -110 hlineto
          -5 -15 -3 -25 -18 vvcurveto
          -111 101 -51 136 -8 vhcurveto
          hintmask 1011101110000000
          -23 -66 rlineto
          48 hlineto
          26 10 -6 -12 -24 -20 -6 -27 hvcurveto
          -96 hlineto
          hintmask 0101101110000000
          -9 -49 rlineto
          hintmask 1001101110000000
          -5 28 39 -3 36 hhcurveto
          endchar
        </CharString>
        <CharString name="Scircumflex">
          43 16 callsubr
          35 135 -44 callgsubr
          hintmask 11101100
          240 -76 callsubr
          hintmask 11110100
          -74 -880 -100 callsubr
          endchar
        </CharString>
        <CharString name="Scommaaccent">
          43 -146 94 40 33 callsubr
          -44 callgsubr
          hintmask 00000000
          hintmask 11110100
          295 -12 -100 callsubr
          -100 -218 rmoveto
          55 hlineto
          hintmask 11101100
          66 93 15 85 rlineto
          -103 58 callsubr
          40 hlineto
          endchar
        </CharString>
        <CharString name="T">
          -13 21 -37 callgsubr
          endchar
        </CharString>
        <CharString name="Tbar">
          -13 21 -21 372 78 140 96 56 callsubr
          191 hmoveto
          110 hlineto
          65 372 rlineto
          100 hlineto
          14 78 rlineto
          -100 hlineto
          25 140 rlineto
          228 hlineto
          18 96 rlineto
          -568 hlineto
          -17 -96 rlineto
          228 hlineto
          -24 -140 rlineto
          -100 hlineto
          -14 -78 rlineto
          100 hlineto
          endchar
        </CharString>
        <CharString name="Tcaron">
          -13 21 -21 590 96 47 135 56 callsubr
          324 733 -93 callgsubr
          -51 -868 rmoveto
          110 hlineto
          104 590 rlineto
          228 hlineto
          18 96 rlineto
          -568 hlineto
          -17 -96 rlineto
          228 hlineto
          endchar
        </CharString>
        <CharString name="Thorn">
          43 21 -21 139 96 240 96 -96 211 hstemhm
          520 113 hintmask 11101000
          47 callgsubr
          24 139 rlineto
          225 hlineto
          151 107 99 149 112 -65 72 -146 hvcurveto
          -196 hlineto
          hintmask 11011000
          21 115 -70 callsubr
          31 -451 rmoveto
          hintmask 11101000
          42 240 rlineto
          208 hlineto
          70 33 -35 -63 -89 -64 -53 -81 hvcurveto
          endchar
        </CharString>
        <CharString name="U">
          -49 callsubr
          -24 callgsubr
          320 -12 -104 callgsubr
          endchar
        </CharString>
        <CharString name="Uacute">
          -12 callsubr
          388 736 -95 callgsubr
          -175 -880 -104 callgsubr
          endchar
        </CharString>
        <CharString name="Ubreve">
          -49 callsubr
          79 72 hstem
          58 111 128 72 vstem
          436 -74 callgsubr
          -116 -757 -104 callgsubr
          endchar
        </CharString>
        <CharString name="Ucircumflex">
          -49 callsubr
          67 135 -24 callgsubr
          276 -76 callsubr
          -85 -880 -104 callgsubr
          endchar
        </CharString>
        <CharString name="Udieresis">
          -49 callsubr
          100 102 -24 callgsubr
          296 -65 callgsubr
          -188 -880 -104 callgsubr
          endchar
        </CharString>
        <CharString name="Ugrave">
          -12 callsubr
          394 736 -78 callsubr
          11 -877 -104 callgsubr
          endchar
        </CharString>
        <CharString name="Uhorn">
          -49 callsubr
          85 117 -24 callgsubr
          -88 callgsubr
          endchar
        </CharString>
        <CharString name="Uhungarumlaut">
          -12 callsubr
          314 736 -61 callgsubr
          -238 -880 -104 callgsubr
          endchar
        </CharString>
        <CharString name="Umacron">
          -49 callsubr
          101 77 -24 callgsubr
          290 767 -67 callsubr
          17 -856 -104 callgsubr
          endchar
        </CharString>
        <CharString name="Uogonek">
          98 -182 66 105 93 604 -20 hstem
          58 111 84 93 vstem
          342 3 callgsubr
          9 52 rlineto
          -29 hlineto
          -32 -11 19 21 26 15 25 17 18 hvcurveto
          138 17 89 82 29 162 76 432 rcurveline
          -111 -104 callsubr
          -133 87 -71 154 -6 vhcurveto
          -25 -24 -21 -30 -42 vvcurveto
          -57 46 -18 43 vhcurveto
          endchar
        </CharString>
        <CharString name="Uring">
          -49 callsubr
          42 49 97 49 hstemhm
          58 111 176 50 99 50 hintmask 00000000
          hintmask 11111110
          431 708 -62 callsubr
          -117 -769 rmoveto
          172 109 83 183 33 hvcurveto
          hintmask 11011110
          76 432 rlineto
          -111 -104 callsubr
          hintmask 11111110
          -139 95 -72 167 vhcurveto
          endchar
        </CharString>
        <CharString name="Utilde">
          -49 callsubr
          92 110 -24 callgsubr
          274 758 rmoveto
          66 hlineto
          -54 callsubr
          -97 callsubr
          46 -770 -104 callgsubr
          endchar
        </CharString>
        <CharString name="V">
          43 0 117 569 -20 hstem
          74 643 vstem
          206 hmoveto
          137 hlineto
          374 686 rlineto
          -118 hlineto
          -251 -470 -51 -99 rlineto
          -5 hlineto
          -3 20 -9 53 -6 30 -85 466 rcurveline
          -115 hlineto
          endchar
        </CharString>
        <CharString name="W">
          3 callsubr
          -27 callsubr
          hintmask 11010000
          139 hmoveto
          141 hlineto
          hintmask 11100000
          191 468 rlineto
          14 35 24 72 0 vvcurveto
          4 hlineto
          0 1 -66 2 -41 vhcurveto
          hintmask 11010000
          25 -468 rlineto
          141 hlineto
          314 -56 callgsubr
          -205 -465 rlineto
          -12 -27 -29 -75 0 vvcurveto
          -5 hlineto
          0 0 71 -2 31 vhcurveto
          hintmask 11100000
          -25 465 rlineto
          -151 hlineto
          -186 -465 rlineto
          -8 -19 -28 -83 0 vvcurveto
          -5 hlineto
          0 -3 76 -3 26 vhcurveto
          -45 465 rlineto
          -109 hlineto
          endchar
        </CharString>
        <CharString name="Wacute">
          3 callsubr
          50 132 -27 callsubr
          hintmask 11101000
          499 736 -95 callgsubr
          -467 -868 -84 callsubr
        </CharString>
        <CharString name="Wcircumflex">
          3 callsubr
          47 135 -27 callsubr
          hintmask 11101000
          387 -76 callsubr
          -377 -868 -84 callsubr
        </CharString>
        <CharString name="Wdieresis">
          3 callsubr
          80 102 -27 callsubr
          hintmask 11101000
          407 -65 callgsubr
          -480 -868 -84 callsubr
        </CharString>
        <CharString name="Wgrave">
          3 callsubr
          50 132 -27 callsubr
          hintmask 11101000
          505 736 -78 callsubr
          -281 -865 -84 callsubr
        </CharString>
        <CharString name="X">
          37 callsubr
          hstem
          -57 755 vstem
          -57 hmoveto
          135 hlineto
          243 271 rlineto
          5 hlineto
          150 -271 rlineto
          126 hlineto
          -202 356 298 330 rlineto
          -136 hlineto
          -210 -239 rlineto
          -5 hlineto
          -133 239 rlineto
          -127 hlineto
          183 -323 rlineto
          endchar
        </CharString>
        <CharString name="Y">
          37 callsubr
          hstem
          72 645 vstem
          219 hmoveto
          -81 callsubr
          endchar
        </CharString>
        <CharString name="Y.loclGUA">
          -18 callgsubr
          hstemhm
          41 114 -71 113 hintmask 00000000
          hintmask 11110000
          274 -12 rmoveto
          166 105 78 180 30 hvcurveto
          38 210 41 230 -70 callsubr
          -36 -205 rlineto
          -127 -23 -75 -66 -102 hhcurveto
          hintmask 11101000
          -72 -38 32 63 11 1 12 2 12 hvcurveto
          48 268 -70 callsubr
          -47 -263 rlineto
          -4 -23 -2 -21 -19 vvcurveto
          -112 65 -54 119 84 68 28 62 46 vhcurveto
          6 hlineto
          -8 -48 rlineto
          -107 -19 -64 -47 -99 hhcurveto
          hintmask 11110000
          -89 -38 27 59 hvcurveto
          -114 -10 hlineto
          -116 93 -54 140 vhcurveto
          endchar
        </CharString>
        <CharString name="Yacute">
          43 -19 callsubr
          72 645 vstem
          359 736 -95 callgsubr
          -247 -868 rmoveto
          -81 callsubr
          endchar
        </CharString>
        <CharString name="Yacute.loclGUA">
          -18 callgsubr
          70 132 -8 callsubr
          373 736 -95 callgsubr
          hintmask 11111000
          -206 -880 -99 callsubr
        </CharString>
        <CharString name="Ycircumflex">
          37 callsubr
          67 135 hstem
          72 645 vstem
          247 -76 callsubr
          -157 -868 rmoveto
          -81 callsubr
          endchar
        </CharString>
        <CharString name="Ycircumflex.loclGUA">
          -18 callgsubr
          67 135 -8 callsubr
          261 -76 callsubr
          hintmask 11111000
          -116 -880 -99 callsubr
        </CharString>
        <CharString name="Ydieresis">
          37 callsubr
          100 102 hstem
          72 645 vstem
          267 -65 callgsubr
          -260 -868 rmoveto
          -81 callsubr
          endchar
        </CharString>
        <CharString name="Ydieresis.loclGUA">
          -18 callgsubr
          100 102 -8 callsubr
          281 -65 callgsubr
          hintmask 11111000
          -219 -880 -99 callsubr
        </CharString>
        <CharString name="Ygrave">
          43 -19 callsubr
          72 645 vstem
          365 736 -78 callsubr
          -61 -865 rmoveto
          -81 callsubr
          endchar
        </CharString>
        <CharString name="Ygrave.loclGUA">
          -18 callgsubr
          70 132 -8 callsubr
          379 736 -78 callsubr
          hintmask 11111000
          -20 -877 -99 callsubr
        </CharString>
        <CharString name="Z">
          -13 0 95 496 95 hstem
          -37 678 vstem
          -37 hmoveto
          -77 callgsubr
          endchar
        </CharString>
        <CharString name="Zacute">
          40 callsubr
          336 736 -95 callgsubr
          -480 -868 rmoveto
          -77 callgsubr
          endchar
        </CharString>
        <CharString name="Zacute.loclPLK">
          40 callsubr
          329 736 -55 callgsubr
          -413 -868 rmoveto
          -77 callgsubr
          endchar
        </CharString>
        <CharString name="Zcaron">
          -13 0 95 496 95 47 135 hstem
          -37 678 vstem
          335 733 -93 callgsubr
          -290 -868 rmoveto
          -77 callgsubr
          endchar
        </CharString>
        <CharString name="Zdotaccent">
          -13 0 95 496 95 77 105 hstem
          -37 678 vstem
          337 763 -84 callgsubr
          -393 -868 rmoveto
          -77 callgsubr
          endchar
        </CharString>
        <CharString name="a">
          -68 callgsubr
          -21 callgsubr
          hintmask 11011000
          453 100 rmoveto
          hintmask 10111000
          -75 callgsubr
          hintmask 11011000
          -105 callgsubr
          -43 callgsubr
          -79 callsubr
        </CharString>
        <CharString name="aacute">
          -68 callgsubr
          85 132 -21 callgsubr
          hintmask 11011100
          483 720 -39 callgsubr
          96 -491 rmoveto
          hintmask 10111100
          -75 callgsubr
          hintmask 11011100
          -105 callgsubr
          -43 callgsubr
          -79 callsubr
        </CharString>
        <CharString name="abreve">
          -68 callgsubr
          94 72 -72 123 13 callgsubr
          hintmask 11001110
          311 600 -85 callsubr
          hintmask 11010110
          -53 callgsubr
          hintmask 11001110
          -87 callgsubr
          hintmask 10101111
          142 -500 rmoveto
          -75 callgsubr
          hintmask 11001111
          -105 callgsubr
          hintmask 10101111
          -43 callgsubr
          hintmask 11001110
          -79 callsubr
        </CharString>
        <CharString name="acircumflex">
          -68 callgsubr
          82 135 -59 59 -21 callgsubr
          hintmask 00000000
          hintmask 11001100
          322 664 rmoveto
          hintmask 10110110
          -98 callsubr
          -129 -135 rlineto
          102 hlineto
          200 -488 rmoveto
          -75 callgsubr
          hintmask 11010110
          -105 callgsubr
          hintmask 10110110
          -43 callgsubr
          hintmask 11010100
          -79 callsubr
        </CharString>
        <CharString name="acute">
          36 callsubr
          61 220 vstem
          61 591 -95 callgsubr
          endchar
        </CharString>
        <CharString name="acute.loclPLK">
          36 callsubr
          159 153 vstem
          159 591 -55 callgsubr
          endchar
        </CharString>
        <CharString name="adieresis">
          -68 callgsubr
          115 102 -21 callgsubr
          hintmask 11011100
          286 723 rmoveto
          -97 hlineto
          -18 -102 rlineto
          96 hlineto
          213 102 rmoveto
          -97 hlineto
          -18 -102 rlineto
          97 hlineto
          -9 -521 rmoveto
          hintmask 10111100
          -75 callgsubr
          hintmask 11011100
          -105 callgsubr
          -43 callgsubr
          -79 callsubr
        </CharString>
        <CharString name="ae">
          265 -48 callgsubr
          23 callsubr
          hintmask 11110110
          174 -12 -40 callgsubr
          hintmask 11101110
          -3 callgsubr
          hintmask 11110110
          -33 callgsubr
        </CharString>
        <CharString name="aeacute">
          265 -48 callgsubr
          53 132 23 callsubr
          hintmask 11111011
          455 591 -95 callgsubr
          -388 -735 -40 callgsubr
          hintmask 11110111
          -3 callgsubr
          hintmask 11111011
          -33 callgsubr
        </CharString>
        <CharString name="agrave">
          -68 callgsubr
          85 132 -21 callgsubr
          hintmask 11011100
          352 591 11 callsubr
          184 -491 rmoveto
          hintmask 10111100
          -75 callgsubr
          hintmask 11011100
          -105 callgsubr
          -43 callgsubr
          -79 callsubr
        </CharString>
        <CharString name="amacron">
          -68 callgsubr
          116 77 -21 callgsubr
          hintmask 11011100
          483 699 rmoveto
          -305 hlineto
          -13 -77 rlineto
          305 hlineto
          -17 -522 rmoveto
          hintmask 10111100
          -75 callgsubr
          hintmask 11011100
          -105 callgsubr
          -43 callgsubr
          -79 callsubr
        </CharString>
        <CharString name="ampersand">
          60 -12 86 231 86 221 86 hstemhm
          17 109 -36 105 310 106 hintmask 00000000
          hintmask 11110100
          263 -12 rmoveto
          167 99 77 132 24 hvcurveto
          19 108 rlineto
          88 hlineto
          15 86 rlineto
          -191 hlineto
          -35 -197 rlineto
          -79 -14 -61 -41 -109 hhcurveto
          -86 -53 30 69 107 92 26 80 hvcurveto
          61 hlineto
          15 85 rlineto
          -64 hlineto
          hintmask 11101100
          -64 -51 30 59 92 84 40 94 81 51 -28 -61 -7 0 -8 -4 -19 hvcurveto
          103 hlineto
          6 28 1 14 9 vvcurveto
          97 -94 61 -144 -157 -126 -77 -140 -64 37 -35 51 -26 vhcurveto
          -1 -4 rlineto
          hintmask 11110100
          -83 -20 -77 -67 -107 vvcurveto
          -108 97 -62 149 vhcurveto
          endchar
        </CharString>
        <CharString name="ampersand.alt">
          60 -13 83 -70 117 -96 -21 615 84 hstemhm
          25 101 62 100 152 101 hintmask 10011110
          639 347 rmoveto
          -97 hlineto
          -16 -61 -25 -53 -31 -42 -113 169 rcurveline
          108 37 76 71 100 vvcurveto
          83 -67 48 -89 -102 -95 -69 -117 -35 8 -38 21 -39 vhcurveto
          -110 -40 -82 -89 -112 vvcurveto
          -102 78 -71 127 79 72 23 41 62 vhcurveto
          hintmask 00111110
          33 -51 rlineto
          122 hlineto
          hintmask 01011110
          -78 117 rlineto
          hintmask 10011110
          54 60 41 78 24 92 rrcurveto
          -264 268 rmoveto
          39 26 -24 -42 -64 -56 -40 -71 -20 hvcurveto
          -17 28 -8 32 32 vvcurveto
          63 38 35 49 vhcurveto
          -131 -545 rmoveto
          -78 -40 36 67 74 58 59 77 25 hvcurveto
          138 -212 rlineto
          -32 -45 -53 -17 -57 hhcurveto
          endchar
        </CharString>
        <CharString name="aogonek">
          -57 -182 66 104 87 -59 -21 457 86 -12 -20 hstemhm
          20 107 191 93 hintmask 11010100
          450 100 rmoveto
          hintmask 11001100
          11 59 299 21 116 vhcurveto
          -82 hlineto
          hintmask 11010110
          -31 -60 rlineto
          -6 hlineto
          49 -27 -45 23 -72 hhcurveto
          -151 -96 -159 -195 -131 66 -65 101 64 62 31 60 37 hvcurveto
          4 -9 hlineto
          hintmask 10110110
          -1 -39 16 -26 27 -10 rrcurveto
          -46 -23 -32 -31 -48 vvcurveto
          -57 46 -18 43 22 21 5 9 24 vhcurveto
          9 52 rlineto
          -29 hlineto
          -33 -10 17 21 46 60 24 33 12 hvcurveto
          12 69 rlineto
          -36 hlineto
          hintmask 11010100
          -19 -11 8 19 hvcurveto
          -232 -25 rmoveto
          -63 -28 40 75 127 47 135 113 70 30 -41 -76 -76 -43 -184 -126 hvcurveto
          endchar
        </CharString>
        <CharString name="approxequal">
          -75 64 101 -41 101 52 101 -41 101 hstemhm
          -3 549 hintmask 00000000
          hintmask 01011000
          35 265 rmoveto
          0 70 72 81 vhcurveto
          hintmask 01101000
          74 45 -60 72 hhcurveto
          93 59 72 0 hvcurveto
          17 101 rlineto
          0 -70 -72 -82 vhcurveto
          hintmask 01011000
          -74 -44 60 -72 hhcurveto
          -93 -59 -72 0 hvcurveto
          -55 -314 rmoveto
          0 70 72 82 vhcurveto
          hintmask 10101000
          74 44 -60 72 hhcurveto
          93 59 72 0 hvcurveto
          18 101 rlineto
          0 -71 -72 -81 vhcurveto
          hintmask 01101000
          -74 -45 60 -72 hhcurveto
          -93 -59 -72 0 hvcurveto
          endchar
        </CharString>
        <CharString name="aring">
          -68 callgsubr
          57 49 97 49 hstemhm
          20 107 93 50 88 95 -84 50 hintmask 0000000000000000
          hintmask 1101111010000000
          306 563 rmoveto
          70 43 49 64 46 -34 36 -52 -70 -43 -50 -65 -45 35 -35 51 hvcurveto
          21 146 rmoveto
          26 16 -17 -23 -31 -22 -26 -35 -27 -15 16 22 32 21 27 36 hvcurveto
          hintmask 1010111100000000
          126 -609 rmoveto
          -75 callgsubr
          hintmask 1100111100000000
          -105 callgsubr
          hintmask 1010111100000000
          -43 callgsubr
          hintmask 1100111010000000
          -79 callsubr
        </CharString>
        <CharString name="aringacute">
          -68 callgsubr
          57 49 97 49 22 132 hstemhm
          20 107 93 50 88 95 -84 50 hintmask 0000000000000000
          hintmask 1101111101000000
          513 909 -39 callgsubr
          -81 -217 rmoveto
          70 43 49 64 hvcurveto
          hintmask 1100101101000000
          46 -34 36 -52 -70 -43 -50 -65 vhcurveto
          hintmask 1101111101000000
          -45 35 -35 51 vhcurveto
          hintmask 1101101101000000
          21 146 rmoveto
          26 16 -17 -23 -31 -22 -26 -35 -27 -15 16 22 32 21 27 36 hvcurveto
          hintmask 1010101110000000
          126 -609 rmoveto
          -75 callgsubr
          hintmask 1100101110000000
          -105 callgsubr
          hintmask 1010101110000000
          -43 callgsubr
          hintmask 1100101101000000
          -79 callsubr
        </CharString>
        <CharString name="arrowboth">
          376 210 85 hstem
          36 921 vstem
          204 76 rmoveto
          45 hlineto
          -30 134 rlineto
          543 hlineto
          -80 -134 rlineto
          53 hlineto
          219 166 3 21 -168 166 rlineto
          -45 hlineto
          33 -134 rlineto
          -543 hlineto
          77 134 rlineto
          -54 hlineto
          -218 -166 -3 -21 rlineto
          endchar
        </CharString>
        <CharString name="arrowdown">
          -124 10 -21 hstem
          20 362 vstem
          152 -208 54 callsubr
          10 53 -145 -56 129 732 rlineto
          -84 hlineto
          -129 -732 -125 56 -8 -45 rlineto
          endchar
        </CharString>
        <CharString name="arrowleft">
          376 210 84 hstem
          30 927 vstem
          197 76 rmoveto
          45 hlineto
          -32 134 rlineto
          732 hlineto
          15 84 rlineto
          -733 hlineto
          81 135 rlineto
          -53 hlineto
          -219 -166 -3 -21 rlineto
          endchar
        </CharString>
        <CharString name="arrowright">
          376 210 84 hstem
          29 927 vstem
          681 76 rmoveto
          53 hlineto
          219 166 3 21 -167 166 rlineto
          -45 hlineto
          32 -135 rlineto
          -732 hlineto
          -15 -84 rlineto
          733 hlineto
          endchar
        </CharString>
        <CharString name="arrowup">
          -124 -208 918 hstem
          100 361 vstem
          116 -208 rmoveto
          84 hlineto
          129 733 124 -57 8 45 -132 197 rlineto
          -21 hlineto
          -199 -189 -9 -53 145 57 rlineto
          endchar
        </CharString>
        <CharString name="arrowupdn">
          -124 12 -21 hstem
          22 446 vstem
          154 -206 54 callsubr
          9 53 -144 -57 96 543 125 -53 8 45 -132 42 callgsubr
          -96 -543 -125 57 -8 -45 rlineto
          endchar
        </CharString>
        <CharString name="arrowupdnbse">
          -124 -233 60 hstem
          -18 486 vstem
          168 -125 54 callsubr
          9 53 -144 -56 81 461 125 -53 9 45 -133 42 callgsubr
          -81 -461 -125 56 -8 -45 rlineto
          -54 -305 rmoveto
          354 hlineto
          11 60 rlineto
          -354 hlineto
          endchar
        </CharString>
        <CharString name="asciicircum">
          -155 595 91 0 -20 hstemhm
          21 419 hintmask 01100000
          21 294 rmoveto
          98 hlineto
          hintmask 10100000
          166 301 62 -301 rlineto
          93 hlineto
          -88 392 rlineto
          -107 hlineto
          endchar
        </CharString>
        <CharString name="asciitilde">
          -40 219 101 -40 101 hstemhm
          24 535 hintmask 01100000
          24 207 rmoveto
          0 73 73 85 vhcurveto
          hintmask 10100000
          78 47 -61 76 hhcurveto
          97 61 73 0 hvcurveto
          18 101 rlineto
          0 -73 -73 -85 vhcurveto
          hintmask 01100000
          -78 -47 61 -76 hhcurveto
          -97 -61 -73 0 hvcurveto
          endchar
        </CharString>
        <CharString name="asterisk">
          -235 686 -20 hstemhm
          200 47 -30 47 hintmask 00000000
          hintmask 11000000
          162 362 rmoveto
          83 hlineto
          4 119 83 -74 53 71 -103 46 120 47 -29 70 rlineto
          hintmask 10100000
          -109 -73 38 118 rlineto
          -83 hlineto
          -4 -119 -83 74 -53 -70 104 -47 -121 -46 29 -71 rlineto
          hintmask 11000000
          109 74 rlineto
          endchar
        </CharString>
        <CharString name="at">
          379 -153 64 111 77 -77 80 340 79 113 64 hstemhm
          46 73 152 100 207 89 216 73 hintmask 1101111110000000
          561 698 rmoveto
          -316 -199 -154 -346 -204 99 -147 303 80 58 9 5 33 hvcurveto
          11 68 rlineto
          0 -77 -18 -105 -253 -76 124 170 293 175 136 267 209 113 -98 -157 -141 -67 -139 -112 -25 -12 7 18 14 54 267 18 105 vhcurveto
          -77 hlineto
          -28 -55 rlineto
          -6 hlineto
          45 -24 -41 21 -65 hhcurveto
          -138 -89 -144 -177 hvcurveto
          hintmask 1011111110000000
          -120 62 -58 93 58 56 28 54 33 vhcurveto
          5 hlineto
          hintmask 1101111110000000
          -14 vlineto
          -52 51 -16 44 205 78 198 159 197 -138 122 -257 vhcurveto
          hintmask 1011111110000000
          -107 -596 rmoveto
          -58 -25 35 68 116 43 121 103 63 28 -36 -69 -70 -40 -165 -114 hvcurveto
          endchar
        </CharString>
        <CharString name="atilde">
          -68 callgsubr
          107 77 -44 77 -21 callgsubr
          hintmask 11001100
          251 646 rmoveto
          -11 callgsubr
          66 hlineto
          hintmask 11001100
          -25 callsubr
          hintmask 10101110
          202 -546 rmoveto
          -75 callgsubr
          hintmask 11001110
          -105 callgsubr
          hintmask 10101110
          -43 callgsubr
          hintmask 11001100
          -79 callsubr
        </CharString>
        <CharString name="b">
          -12 86 -53 -21 451 87 185 -20 hstemhm
          427 107 hintmask 10111000
          281 -12 rmoveto
          162 91 162 192 135 -67 61 -104 -68 -52 -27 -45 -39 hvcurveto
          -6 hlineto
          45 257 rlineto
          -103 hlineto
          hintmask 01111000
          -127 -723 rlineto
          82 hlineto
          hintmask 10111000
          22 70 rlineto
          6 hlineto
          -54 28 57 -28 73 hhcurveto
          -23 86 rmoveto
          -71 -32 43 80 116 53 138 117 70 32 -33 -81 -130 -48 -133 -121 hvcurveto
          endchar
        </CharString>
        <CharString name="backslash">
          -346 735 -20 hstem
          71 137 vstem
          130 -49 rmoveto
          78 hlineto
          -59 784 rlineto
          -78 hlineto
          endchar
        </CharString>
        <CharString name="bar">
          45 callsubr
          -173 rmoveto
          84 896 -84 hlineto
          endchar
        </CharString>
        <CharString name="braceleft">
          41 callgsubr
          64 91 -51 83 hintmask 10111000
          226 -159 rmoveto
          11 63 rlineto
          -39 -43 10 45 hvcurveto
          hintmask 11110100
          29 32 176 40 vvcurveto
          50 -22 29 -62 vhcurveto
          2 10 rlineto
          hintmask 10110100
          77 26 34 74 16 hvcurveto
          9 39 26 119 9 45 rrcurveto
          56 10 53 12 41 hhcurveto
          11 63 rlineto
          -115 -73 -22 -126 -22 hvcurveto
          -34 -196 rlineto
          -45 -8 -48 -15 -41 hhcurveto
          hintmask 11110100
          -15 -86 rlineto
          37 40 -12 -39 hvcurveto
          hintmask 10111000
          -33 -40 -160 -51 vvcurveto
          -92 69 -17 93 vhcurveto
          endchar
        </CharString>
        <CharString name="braceright">
          41 callgsubr
          143 83 -51 91 hintmask 11010100
          -53 -159 rmoveto
          hintmask 11011000
          115 73 22 126 22 hvcurveto
          34 196 rlineto
          45 8 48 15 41 hhcurveto
          hintmask 11111000
          16 86 rlineto
          -38 -40 12 39 hvcurveto
          hintmask 11010100
          33 40 160 51 vvcurveto
          92 -69 17 -93 vhcurveto
          -11 -63 rlineto
          39 43 -10 -45 hvcurveto
          hintmask 11111000
          -29 -32 -176 -40 vvcurveto
          -50 22 -29 62 vhcurveto
          -2 -10 rlineto
          hintmask 11011000
          -77 -25 -34 -74 -17 hvcurveto
          -9 -39 -26 -119 -9 -45 rrcurveto
          -56 -10 -53 -12 -41 hhcurveto
          endchar
        </CharString>
        <CharString name="bracketleft">
          -329 -161 74 748 74 hstem
          -15 353 vstem
          -15 -161 rmoveto
          196 hlineto
          12 74 rlineto
          -106 hlineto
          132 748 rlineto
          106 hlineto
          13 74 rlineto
          -197 hlineto
          endchar
        </CharString>
        <CharString name="bracketright">
          -329 -161 74 748 74 hstem
          -65 352 vstem
          -65 -161 rmoveto
          195 hlineto
          157 896 rlineto
          -196 hlineto
          -13 -74 rlineto
          107 hlineto
          -132 -748 rlineto
          -106 hlineto
          endchar
        </CharString>
        <CharString name="breve">
          -291 600 58 callgsubr
          25 72 hintmask 01100000
          164 600 -85 callsubr
          hintmask 10100000
          -53 callgsubr
          hintmask 01100000
          -87 callgsubr
          endchar
        </CharString>
        <CharString name="brokenbar">
          45 callsubr
          357 rmoveto
          84 366 -84 hlineto
          -896 vmoveto
          84 366 -84 hlineto
          endchar
        </CharString>
        <CharString name="bullet">
          -274 216 255 hstem
          46 257 vstem
          163 216 rmoveto
          86 54 65 77 63 -50 50 -66 -86 -55 -66 -77 -63 50 -49 67 hvcurveto
          endchar
        </CharString>
        <CharString name="c">
          30 callsubr
          25 callgsubr
          233 -12 -89 callsubr
        </CharString>
        <CharString name="cacute">
          30 callsubr
          53 132 25 callgsubr
          263 591 -95 callgsubr
          -137 -735 -89 callsubr
        </CharString>
        <CharString name="cacute.loclPLK">
          30 callsubr
          53 132 25 callgsubr
          256 591 -55 callgsubr
          -70 -735 -89 callsubr
        </CharString>
        <CharString name="caron">
          -291 588 135 hstem
          24 307 vstem
          106 588 -93 callgsubr
          endchar
        </CharString>
        <CharString name="ccaron">
          30 callsubr
          50 135 25 callgsubr
          262 588 -93 callgsubr
          53 -735 -89 callsubr
        </CharString>
        <CharString name="ccedilla">
          -107 15 callgsubr
          48 -21 462 84 hstemhm
          20 106 107 84 67 106 hintmask 10011111
          487 330 rmoveto
          2 14 1 14 12 vvcurveto
          102 -62 66 -140 -196 -72 -177 -170 -118 48 -65 106 -16 vhcurveto
          hintmask 10111111
          -24 -69 rlineto
          47 -28 callgsubr
          hintmask 01011111
          -9 -49 rlineto
          hintmask 10111111
          -19 callgsubr
          8 23 131 4 72 86 19 118 rlinecurve
          -99 hlineto
          -66 -12 -42 -58 -81 hhcurveto
          -69 -35 37 89 24 2 27 6 31 hvcurveto
          94 17 44 80 96 hhcurveto
          72 21 -42 -54 -9 0 -9 -1 -10 hvcurveto
          endchar
        </CharString>
        <CharString name="ccircumflex">
          30 callsubr
          50 57 callgsubr
          20 106 258 106 hintmask 11101100
          151 17 callgsubr
          hintmask 11011100
          69 76 rlineto
          hintmask 11101100
          -98 callsubr
          -47 -735 -89 callsubr
        </CharString>
        <CharString name="cdotaccent">
          30 callsubr
          80 105 25 callgsubr
          264 -15 callgsubr
          -50 -735 -89 callsubr
        </CharString>
        <CharString name="cedilla">
          -291 -182 57 -28 -21 97 88 hstemhm
          185 84 hintmask 10110000
          137 -182 rmoveto
          56 76 14 73 41 -37 18 -46 1 hvcurveto
          16 46 rlineto
          -69 hlineto
          -31 -88 rlineto
          47 -28 callgsubr
          hintmask 01110000
          -9 -49 rlineto
          hintmask 10110000
          -5 28 39 -3 36 hhcurveto
          endchar
        </CharString>
        <CharString name="cent">
          -68 723 -20 hstem
          49 107 258 106 vstem
          193 -49 rmoveto
          51 hlineto
          20 116 138 1 73 87 19 120 rlinecurve
          -99 hlineto
          -12 -61 -35 -54 -69 -8 67 378 rcurveline
          52 -9 16 -37 -47 vvcurveto
          -10 -1 -9 -1 -9 vhcurveto
          105 hlineto
          2 13 1 14 13 vvcurveto
          90 -49 62 -110 13 vhcurveto
          20 109 rlineto
          -51 hlineto
          -19 -107 rlineto
          -191 -4 -71 -175 -167 vvcurveto
          -122 52 -65 113 -14 vhcurveto
          15 84 rmoveto
          -49 11 -24 37 75 vvcurveto
          22 2 24 4 29 vhcurveto
          14 88 38 78 82 13 rrcurveto
          endchar
        </CharString>
        <CharString name="circumflex">
          -291 588 57 callgsubr
          1 307 hintmask 10100000
          1 17 callgsubr
          hintmask 01100000
          69 76 rlineto
          hintmask 10100000
          -98 callsubr
          endchar
        </CharString>
        <CharString name="colon">
          -329 0 117 292 117 hstem
          37 205 vstem
          109 409 rmoveto
          -26 callsubr
          -93 -526 30 callgsubr
          -112 hlineto
          endchar
        </CharString>
        <CharString name="comma">
          -346 0 117 hstem
          4 158 -16 callsubr
          endchar
        </CharString>
        <CharString name="copyright">
          113 -12 52 93 58 303 59 93 52 hstem
          13 54 123 72 194 71 142 -45 callgsubr
          93 vmoveto
          114 45 75 86 hvcurveto
          -67 hlineto
          -67 -26 -36 -66 -74 -32 44 107 110 34 42 72 68 20 -32 -70 vhcurveto
          71 hlineto
          104 -47 57 -112 -121 -57 -66 -145 -144 56 -65 122 vhcurveto
          endchar
        </CharString>
        <CharString name="currency">
          -68 102 79 338 79 hstem
          33 82 326 82 vstem
          74 99 rmoveto
          55 58 rlineto
          -37 40 55 -18 54 hhcurveto
          54 55 18 37 40 hvcurveto
          55 -58 45 45 -54 56 rlineto
          34 42 16 54 55 vvcurveto
          55 -16 56 -34 39 vhcurveto
          55 54 -48 48 -57 -56 rlineto
          33 -38 -54 18 -53 hhcurveto
          -53 -54 -18 -33 -38 hvcurveto
          -57 56 -48 -48 55 -54 rlineto
          -34 -39 -16 -56 -55 vvcurveto
          -55 16 -54 34 -42 vhcurveto
          -54 -56 rlineto
          249 37 rmoveto
          -91 -72 79 91 89 73 79 90 90 73 -79 -89 -91 -72 -79 -91 hvcurveto
          endchar
        </CharString>
        <CharString name="d">
          55 callsubr
          185 -20 hstemhm
          20 107 hintmask 10111000
          -28 callsubr
          hintmask 01111000
          -64 callgsubr
          hintmask 10111000
          -9 callsubr
          endchar
        </CharString>
        <CharString name="dagger">
          -68 686 -20 hstem
          62 489 vstem
          145 -171 rmoveto
          100 hlineto
          88 600 200 10 callsubr
          rlineto
          endchar
        </CharString>
        <CharString name="daggerdbl">
          -68 686 -20 hstem
          -9 559 vstem
          146 -171 rmoveto
          94 hlineto
          20 194 201 -17 17 99 -206 -18 47 173 12 169 201 10 callsubr
          -48 -169 -12 -173 -200 18 -16 -99 205 17 rlineto
          endchar
        </CharString>
        <CharString name="dcaron">
          30 55 callsubr
          46 102 -102 139 hstemhm
          20 107 hintmask 10110100
          -28 callsubr
          hintmask 01101100
          -64 callgsubr
          hintmask 10110100
          -145 69 -63 113 vhcurveto
          390 487 rmoveto
          54 hlineto
          70 118 16 93 rlineto
          -101 hlineto
          -18 -102 rlineto
          39 hlineto
          -420 -509 -42 callgsubr
        </CharString>
        <CharString name="dcroat">
          55 callsubr
          55 65 -65 130 hstemhm
          20 107 hintmask 10101100
          -28 callsubr
          hintmask 01101100
          -70 80 vlineto
          103 593 rlineto
          67 hlineto
          hintmask 10110100
          11 65 rlineto
          -66 hlineto
          hintmask 10101100
          12 65 rlineto
          -103 hlineto
          hintmask 10110100
          -12 -65 rlineto
          -142 hlineto
          hintmask 10101100
          -11 -65 rlineto
          142 hlineto
          -22 -127 rlineto
          -6 hlineto
          46 -29 -47 26 -77 hhcurveto
          -152 -98 -154 -188 -145 69 -63 113 hvcurveto
          30 87 -42 callgsubr
        </CharString>
        <CharString name="degree">
          -224 415 62 158 63 hstem
          76 62 158 63 vstem
          217 415 rmoveto
          79 63 63 79 78 -63 63 -79 -78 -63 -63 -78 -79 63 -63 78 hvcurveto
          62 vmoveto
          -43 -36 36 44 43 36 35 43 44 35 -35 -43 -44 -35 -36 -44 hvcurveto
          endchar
        </CharString>
        <CharString name="dieresis">
          -291 621 102 hstem
          12 309 vstem
          12 -57 callsubr
          endchar
        </CharString>
        <CharString name="divide">
          -75 0 103 108 89 108 103 hstem
          26 489 vstem
          244 408 rmoveto
          106 hlineto
          18 103 rlineto
          -106 hlineto
          -236 -300 rmoveto
          473 hlineto
          16 89 rlineto
          -473 hlineto
          129 -300 rmoveto
          106 hlineto
          19 103 rlineto
          -106 hlineto
          endchar
        </CharString>
        <CharString name="dollar">
          -68 69 175 209 162 108 -20 hstemhm
          32 105 -49 108 177 110 -77 105 hintmask 01101100
          185 -49 rmoveto
          51 hlineto
          20 116 rlineto
          119 2 108 53 131 vvcurveto
          94 -90 26 -79 20 vhcurveto
          hintmask 11101010
          26 139 rlineto
          47 -6 19 -24 -30 vvcurveto
          -5 -1 -8 -1 -6 vhcurveto
          100 hlineto
          2 4 5 21 17 vvcurveto
          62 -56 48 -101 10 vhcurveto
          19 108 rlineto
          -51 hlineto
          -19 -106 rlineto
          -122 -4 -93 -63 -106 vvcurveto
          -88 84 -25 77 -22 vhcurveto
          hintmask 11110100
          -28 -158 rlineto
          -49 5 -35 20 45 vvcurveto
          3 1 12 2 8 vhcurveto
          -101 hlineto
          -4 -12 -3 -19 -13 vvcurveto
          -67 54 -54 120 -10 vhcurveto
          hintmask 01101100
          60 338 rmoveto
          -41 12 -29 15 32 vvcurveto
          24 21 36 72 7 vhcurveto
          -18 -383 rmoveto
          26 145 rlineto
          43 -14 33 -19 -36 vvcurveto
          -45 -46 -25 -56 -6 vhcurveto
          endchar
        </CharString>
        <CharString name="dotaccent">
          -291 618 105 hstem
          106 121 vstem
          106 -15 callgsubr
          endchar
        </CharString>
        <CharString name="dotbelowcomb">
          -624 -173 105 hstem
          -303 121 vstem
          -303 -173 -84 callgsubr
          endchar
        </CharString>
        <CharString name="dotlessi">
          -34 callgsubr
          hstem
          28 196 vstem
          28 hmoveto
          -58 callsubr
          endchar
        </CharString>
        <CharString name="e">
          -52 callsubr
          hstem
          -24 callsubr
          vstem
          253 -12 -103 callgsubr
        </CharString>
        <CharString name="eacute">
          -11 callsubr
          269 591 -95 callgsubr
          -123 -87 callsubr
        </CharString>
        <CharString name="ebreve">
          -52 callsubr
          62 58 callgsubr
          20 104 54 72 160 103 hintmask 11101111
          317 600 -85 callsubr
          hintmask 11110111
          -53 callgsubr
          hintmask 11101111
          -87 callgsubr
          -64 -612 -103 callgsubr
        </CharString>
        <CharString name="ecaron">
          -52 callsubr
          50 135 hstem
          -24 callsubr
          vstem
          268 588 -93 callgsubr
          67 -87 callsubr
        </CharString>
        <CharString name="ecircumflex">
          -52 callsubr
          50 135 -59 59 38 callgsubr
          hintmask 11110110
          157 17 callgsubr
          hintmask 11101110
          69 76 rlineto
          hintmask 11110110
          -90 callgsubr
          endchar
        </CharString>
        <CharString name="edieresis">
          -52 callsubr
          83 102 hstem
          -24 callsubr
          vstem
          177 -57 callsubr
          -136 -87 callsubr
        </CharString>
        <CharString name="edotaccent">
          -52 callsubr
          80 105 hstem
          -24 callsubr
          vstem
          270 -15 callgsubr
          -36 -87 callsubr
        </CharString>
        <CharString name="egrave">
          -11 callsubr
          275 591 -78 callsubr
          63 -732 -103 callgsubr
        </CharString>
        <CharString name="eight">
          -68 -12 84 236 85 221 84 hstemhm
          9 107 -33 104 204 106 -67 105 hintmask 00000000
          hintmask 11110100
          231 -12 rmoveto
          178 88 107 122 60 -25 47 -61 28 hvcurveto
          hintmask 11101010
          81 37 43 69 77 vvcurveto
          93 -66 70 -138 -152 -96 -103 -118 -52 22 -45 48 -28 vhcurveto
          hintmask 11110100
          -97 -35 -47 -76 -89 vvcurveto
          -94 62 -70 160 vhcurveto
          hintmask 11101010
          58 405 rmoveto
          -66 -36 31 54 85 60 51 81 65 37 -32 -54 -88 -66 -47 -75 hvcurveto
          hintmask 11110100
          -56 -321 rmoveto
          -77 -40 35 57 89 63 55 95 77 40 -33 -58 -99 -78 -46 -80 hvcurveto
          endchar
        </CharString>
        <CharString name="ellipsis">
          376 0 117 hstem
          71 798 vstem
          71 hmoveto
          111 hlineto
          22 -1 callgsubr
          312 -117 rmoveto
          111 hlineto
          22 -1 callgsubr
          311 -117 rmoveto
          -26 callsubr
          endchar
        </CharString>
        <CharString name="emacron">
          -52 callsubr
          84 77 hstem
          -24 callsubr
          vstem
          171 622 -67 callsubr
          69 -711 -103 callgsubr
        </CharString>
        <CharString name="emdash">
          5 callgsubr
        </CharString>
        <CharString name="endash">
          -68 229 82 hstem
          -9 569 vstem
          -9 229 rmoveto
          555 hlineto
          14 82 rlineto
          -556 hlineto
          endchar
        </CharString>
        <CharString name="eng">
          -182 82 121 8 callsubr
          hintmask 11101000
          307 -182 rmoveto
          96 30 64 63 11 hvcurveto
          69 393 rlineto
          5 26 3 25 20 vvcurveto
          94 -63 35 -92 -66 -67 -35 -48 -39 vhcurveto
          -7 hlineto
          hintmask 11011000
          71 -80 vlineto
          -93 -526 rlineto
          103 hlineto
          52 293 rlineto
          hintmask 11101000
          100 18 76 57 76 hhcurveto
          45 30 -16 -51 -15 -2 -18 -3 -19 hvcurveto
          -68 -384 rlineto
          -30 -5 -18 -17 -30 hhcurveto
          -46 hlineto
          -12 -69 rlineto
          -6 18 32 -7 27 hhcurveto
          endchar
        </CharString>
        <CharString name="eogonek">
          -68 -182 66 104 -47 callsubr
          hstem
          20 104 147 93 46 103 vstem
          360 3 callgsubr
          9 52 rlineto
          -27 hlineto
          -31 -14 23 27 37 22 43 31 31 hvcurveto
          40 36 22 40 10 60 rrcurveto
          -101 hlineto
          -78 -13 -56 -32 -68 hhcurveto
          -87 -40 41 84 13 1 13 3 15 hvcurveto
          -44 callsubr
          5 27 3 -80 callsubr
          -48 callsubr
          18 17 2 2 17 vhcurveto
          -19 -24 -15 -31 -37 vvcurveto
          -62 45 -20 44 vhcurveto
          -218 497 rmoveto
          90 23 53 50 86 hhcurveto
          64 42 -29 -73 -12 -1 -13 -3 -13 hvcurveto
          endchar
        </CharString>
        <CharString name="equal">
          -40 103 89 123 90 hstem
          27 526 vstem
          64 315 rmoveto
          473 hlineto
          16 90 rlineto
          -473 hlineto
          -53 -302 rmoveto
          472 hlineto
          16 89 rlineto
          -473 hlineto
          endchar
        </CharString>
        <CharString name="equivalence">
          -41 10 89 123 90 123 90 hstem
          2 562 vstem
          77 435 rmoveto
          472 hlineto
          15 90 rlineto
          -472 hlineto
          -53 -303 rmoveto
          472 hlineto
          16 90 rlineto
          -472 hlineto
          -53 -302 rmoveto
          472 hlineto
          15 89 rlineto
          -472 hlineto
          endchar
        </CharString>
        <CharString name="estimated">
          -24 -12 42 218 42 206 42 hstem
          45 108 298 108 vstem
          302 -12 rmoveto
          104 78 50 80 42 hvcurveto
          -34 21 rlineto
          -67 -34 -68 -42 -88 hhcurveto
          -62 -50 19 34 -37 hvcurveto
          165 406 5 vlineto
          165 -98 120 -159 -160 -97 -116 -159 -159 97 -116 160 vhcurveto
          -149 302 rmoveto
          152 vlineto
          34 37 50 20 62 hhcurveto
          61 50 -20 -35 38 hvcurveto
          -151 vlineto
          endchar
        </CharString>
        <CharString name="eth">
          -12 85 377 85 66 61.5 -61.5 122 -105 62 hstemhm
          20 107 298 108 hintmask 11010110
          248 -12 rmoveto
          212 73 172 182 hvcurveto
          hintmask 11001110
          103 -37 93 -56 77 vhcurveto
          96 6 12 64 -159 -10 rlineto
          hintmask 11010110
          -15 17 -16 15 -18 16 rrcurveto
          -115 hlineto
          -3 -4 rlineto
          hintmask 11100110
          19 -18 21 -17 18 -18 -102 -7 rcurveline
          hintmask 11010110
          -11 -64 159 12 20 -28 18 -27 14 -29 rlinecurve
          -3 -2 rlineto
          9 -26 -29 5 -31 hhcurveto
          -79 -60 -29 -48 -44 hvcurveto
          -59 -65 -27 -100 -106 vvcurveto
          -136 77 -63 151 vhcurveto
          1 85 rmoveto
          -83 -39 37 85 26 2 26 6 32 hvcurveto
          96 18 48 75 101 hhcurveto
          84 39 -38 -85 -27 -3 -29 -6 -32 hvcurveto
          -95 -19 -48 -71 -100 hhcurveto
          endchar
        </CharString>
        <CharString name="exclam">
          -329 0 117 569 -20 hstem
          32 240 vstem
          84 179 24 callgsubr
          -114 -686 19 callgsubr
        </CharString>
        <CharString name="exclamdbl">
          -92 0 117 569 -20 hstem
          32 504 vstem
          84 179 24 callgsubr
          202 -507 24 callgsubr
          -378 -686 52 callsubr
          243 -117 19 callgsubr
        </CharString>
        <CharString name="exclamdown">
          -291 409 117 hstem
          46 240 vstem
          154 409 rmoveto
          111 hlineto
          21 -1 callgsubr
          -128 -686 rmoveto
          126 hlineto
          62 507 rlineto
          -68 hlineto
          endchar
        </CharString>
        <CharString name="f">
          -329 -182 85 538 85 120 85 hstem
          -100 456 vstem
          -20 -182 rmoveto
          9 callgsubr
          99 hlineto
          15 85 rlineto
          -99 hlineto
          14 74 -73 callsubr
          endchar
        </CharString>
        <CharString name="f_f">
          -34 34 callsubr
          120 85 hstem
          -100 751 vstem
          586 646 rmoveto
          52 hlineto
          13 72 rlineto
          7 -19 -33 6 -28 hhcurveto
          -100 -32 -65 -63 -10 hvcurveto
          -14 -77 rlineto
          -192 hlineto
          14 74 -73 callsubr
          9 callgsubr
          192 hlineto
          -78 -441 rlineto
          103 hlineto
          78 441 rlineto
          99 hlineto
          15 85 rlineto
          -99 hlineto
          13 74 rlineto
          30 5 19 16 31 hhcurveto
          endchar
        </CharString>
        <CharString name="fi">
          -90 34 callsubr
          91 106 -77 85 hstemhm
          -100 638 hintmask 11110100
          -20 -182 rmoveto
          9 callgsubr
          99 hlineto
          15 85 rlineto
          -99 hlineto
          hintmask 11101100
          14 74 -71 callsubr
          hintmask 11110100
          -7 18 33 -6 29 hhcurveto
          436 799 -31 callsubr
          -127 -29 callgsubr
        </CharString>
        <CharString name="five">
          -68 -12 84 290 84 144 96 hstem
          13 106 275 109 vstem
          231 -12 rmoveto
          150 122 102 178 121 -75 57 -102 -70 -49 -23 -23 -32 hvcurveto
          48 190 rlineto
          303 hlineto
          17 96 rlineto
          -392 hlineto
          -95 -380 94 -14 rlineto
          40 34 52 30 60 hhcurveto
          61 37 -36 -69 -132 -85 -53 -82 -65 -43 41 68 10 1 10 2 12 hvcurveto
          -105 hlineto
          -3 -17 -1 -16 -15 vvcurveto
          -111 82 -66 136 vhcurveto
          endchar
        </CharString>
        <CharString name="fiveeighths">
          29 callgsubr
          -38 59 127 59 58 62 12 -20 hstemhm
          60 70 120 71 173 70 -33 69 84 70 -50 70 hintmask 1101110110110000
          50 -12 rmoveto
          85 hlineto
          hintmask 1101101110110000
          671 710 rlineto
          -85 hlineto
          -543 -377 rmoveto
          80 63 54 93 66 -40 32 -56 -27 -22 -7 -8 -15 hvcurveto
          hintmask 1101110110110000
          18 73 rlineto
          153 hlineto
          11 62 rlineto
          -212 hlineto
          -48 -192 59 -9 rlineto
          14 20 18 8 24 hhcurveto
          27 19 -13 -32 -55 -37 -27 -36 -29 -18 17 29 4 0 5 1 5 hvcurveto
          -69 hlineto
          -2 -9 0 -8 -8 vvcurveto
          hintmask 1101101110110000
          -60 44 -34 74 vhcurveto
          hintmask 1101110111010000
          435 -333 rmoveto
          90 51 55 65 30 -14 26 -26 16 hvcurveto
          hintmask 1110110110101000
          56 callgsubr
          -36 38 -76 -80 -51 28 callsubr
          hintmask 1101110111010000
          35 callgsubr
          85 vhcurveto
          hintmask 1110110110101000
          30 22 callgsubr
          hintmask 1101110111010000
          -28 -160 rmoveto
          -33 -18 15 27 37 27 22 42 33 18 -14 -25 -41 -34 -21 -35 hvcurveto
          endchar
        </CharString>
        <CharString name="fl">
          -90 34 callsubr
          120 77 -77 85 hstemhm
          -100 638 hintmask 11101100
          -20 -182 rmoveto
          9 callgsubr
          99 hlineto
          15 85 rlineto
          -99 hlineto
          14 74 -73 callsubr
          328 182 rmoveto
          103 hlineto
          hintmask 11110100
          -32 callsubr
          endchar
        </CharString>
        <CharString name="florin">
          -68 -183 85 493 85 166 85 hstem
          -29 565 vstem
          46 -183 rmoveto
          103 37 60 68 20 hvcurveto
          136 450 rlineto
          98 hlineto
          25 85 rlineto
          -99 hlineto
          37 120 rlineto
          30 9 20 16 32 hhcurveto
          51 hlineto
          21 72 rlineto
          7 -16 -31 6 -27 hhcurveto
          -104 -36 -60 -68 -21 hvcurveto
          -38 -123 rlineto
          -76 hlineto
          -24 -85 rlineto
          76 hlineto
          -135 -447 rlineto
          -30 -9 -20 -16 -31 hhcurveto
          -52 hlineto
          -21 -72 rlineto
          -7 16 31 -6 28 hhcurveto
          endchar
        </CharString>
        <CharString name="four">
          -68 21 -21 162 85 451 -20 hstem
          -3 516 vstem
          278 hmoveto
          103 hlineto
          29 162 rlineto
          88 hlineto
          15 85 rlineto
          -88 hlineto
          61 349 rlineto
          -52 hlineto
          -23 -53 -25 -50 -29 -47 -35 -199 rcurveline
          -213 hlineto
          50 55 152 214 74 182 rrcurveto
          -114 hlineto
          -70 -169 -85 -145 -105 -136 -14 -86 rcurveline
          310 hlineto
          endchar
        </CharString>
        <CharString name="fraction">
          0 callgsubr
        </CharString>
        <CharString name="franc">
          -68 21 -21 295 88 -13 106 120 90 hstemhm
          12 557 hintmask 11011000
          12 hmoveto
          107 hlineto
          52 295 65 callgsubr
          -51 -295 rlineto
          103 hlineto
          40 232 rlineto
          hintmask 10111000
          98 17 55 40 62 hhcurveto
          38 hlineto
          17 98 rlineto
          0 -17 8 -27 vhcurveto
          hintmask 11011000
          -60 -38 -46 -47 -24 hvcurveto
          -6 hlineto
          hintmask 10111000
          3 81 rlineto
          -81 hlineto
          hintmask 11011000
          -15 -81 rlineto
          -117 hlineto
          37 213 rlineto
          244 hlineto
          16 90 rlineto
          -351 hlineto
          endchar
        </CharString>
        <CharString name="g">
          -36 callgsubr
          hstemhm
          21 107 hintmask 11101000
          198 -182 -27 callgsubr
          hintmask 11011000
          10 callgsubr
          hintmask 11101000
          -94 callgsubr
        </CharString>
        <CharString name="g_tilde.loclGUA">
          -36 callgsubr
          107 39 callsubr
          21 107 hintmask 00000000
          hintmask 11101010
          153 26 callgsubr
          hintmask 11100110
          -25 callsubr
          hintmask 11101010
          49 36 -33 54 hhcurveto
          hintmask 11100110
          63 35 51 59 10 hvcurveto
          -67 hlineto
          hintmask 11101010
          -54 callgsubr
          -49 -36 33 -54 hhcurveto
          -63 -34 -51 -59 -10 hvcurveto
          hintmask 11010110
          45 -795 -27 callgsubr
          10 callgsubr
          hintmask 11100110
          -22 -70 rlineto
          -6 hlineto
          54 -28 -57 28 -73 hhcurveto
          -158 -94 -152 -189 -129 72 -57 102 70 50 27 45 40 hvcurveto
          6 hlineto
          -5 -24 rlineto
          -106 -20 -54 -51 -84 hhcurveto
          -61 -37 -41 callgsubr
          hintmask 11010110
          -98 1 80 -49 120 hhcurveto
          hintmask 11100110
          35 280 rmoveto
          -73 -32 30 74 127 48 122 121 71 32 -39 -74 -114 -52 -126 -115 hvcurveto
          endchar
        </CharString>
        <CharString name="gbreve">
          -36 callgsubr
          94 58 callgsubr
          21 107 48 72 hintmask 11100111
          315 600 -85 callsubr
          hintmask 11101011
          -53 callgsubr
          hintmask 11100111
          -87 callgsubr
          -117 -782 -27 callgsubr
          hintmask 11010111
          10 callgsubr
          hintmask 11100111
          -94 callgsubr
        </CharString>
        <CharString name="gcaron">
          -36 callgsubr
          82 135 hstemhm
          21 107 hintmask 11101100
          266 588 -93 callgsubr
          14 -905 -27 callgsubr
          hintmask 11011100
          10 callgsubr
          hintmask 11101100
          -94 callgsubr
        </CharString>
        <CharString name="gcircumflex">
          -36 callgsubr
          82 57 callgsubr
          21 107 hintmask 11101010
          155 17 callgsubr
          hintmask 11100110
          69 76 rlineto
          hintmask 11011010
          -98 callsubr
          -86 -905 -27 callgsubr
          10 callgsubr
          hintmask 11101010
          -22 -70 rlineto
          -6 hlineto
          54 -28 -57 28 -73 hhcurveto
          -158 -94 -152 -189 -129 72 -57 102 70 50 27 45 40 hvcurveto
          6 hlineto
          -5 -24 rlineto
          -106 -20 -54 -51 -84 hhcurveto
          -61 -37 -41 callgsubr
          hintmask 11011010
          -98 1 80 -49 120 hhcurveto
          hintmask 11101010
          35 280 rmoveto
          -73 -32 30 74 127 48 122 121 71 32 -39 -74 -114 -52 -126 -115 hvcurveto
          endchar
        </CharString>
        <CharString name="gcommaaccent">
          -36 callgsubr
          95 93 hstemhm
          21 107 hintmask 11101100
          265 601 rmoveto
          103 hlineto
          17 93 rlineto
          -41 hlineto
          58 86 rlineto
          -55 hlineto
          -67 -94 rlineto
          -82 -868 -27 callgsubr
          hintmask 11011100
          10 callgsubr
          hintmask 11101100
          -94 callgsubr
        </CharString>
        <CharString name="gdotaccent">
          -36 callgsubr
          112 105 hstemhm
          21 107 hintmask 11101100
          268 -15 callgsubr
          -89 -905 -27 callgsubr
          hintmask 11011100
          10 callgsubr
          hintmask 11101100
          -94 callgsubr
        </CharString>
        <CharString name="germandbls">
          -13 0 85 256 88 222 84 hstemhm
          455 104 -72 106 hintmask 11110000
          7 hmoveto
          103 hlineto
          91 518 rlineto
          87 15 64 46 90 hhcurveto
          hintmask 11101000
          78 39 -39 -58 -69 -66 -56 -76 hvcurveto
          -84 hlineto
          -15 -88 rlineto
          91 hlineto
          hintmask 11110000
          71 47 -46 -66 -76 -71 -68 -86 hvcurveto
          -97 hlineto
          -15 -85 rlineto
          115 hlineto
          138 120 93 138 82 -41 54 -71 24 hvcurveto
          4 vlineto
          hintmask 11101000
          89 26 57 72 78 vvcurveto
          103 -85 61 -135 -68 -65 -16 -37 -49 vhcurveto
          -47 -36 -34 -55 -13 -77 rrcurveto
          endchar
        </CharString>
        <CharString name="grave">
          36 callsubr
          86 168 vstem
          171 591 -78 callsubr
          endchar
        </CharString>
        <CharString name="greater">
          -40 3 507 hstem
          9 529 vstem
          9 3 rmoveto
          508 197 21 113 -440 197 -16 -96 359 -154 -414 -155 rlineto
          endchar
        </CharString>
        <CharString name="greaterequal">
          -75 0 89 446 -20 hstem
          -17 550 vstem
          4 124 rmoveto
          508 196 21 113 -440 197 -16 -95 359 -155 -414 -154 rlineto
          -39 -226 22 callsubr
        </CharString>
        <CharString name="guillemotleft">
          -68 326 200 0 -20 hstemhm
          56 480 hintmask 01100000
          171 126 rmoveto
          79 hlineto
          hintmask 10100000
          2 callgsubr
          330 -200 rmoveto
          79 hlineto
          2 callgsubr
          endchar
        </CharString>
        <CharString name="guillemotright">
          -68 326 200 0 -20 hstemhm
          14 469 hintmask 01100000
          14 126 rmoveto
          88 hlineto
          hintmask 10100000
          1 callsubr
          44 -200 rmoveto
          88 hlineto
          1 callsubr
          endchar
        </CharString>
        <CharString name="guilsinglleft">
          -291 526 -20 hstem
          56 265 vstem
          171 126 rmoveto
          79 hlineto
          2 callgsubr
          endchar
        </CharString>
        <CharString name="guilsinglright">
          -291 526 -20 hstem
          14 266 vstem
          14 126 rmoveto
          88 hlineto
          1 callsubr
          endchar
        </CharString>
        <CharString name="h">
          21 -21 450 88 185 -20 hstem
          414 107 vstem
          14 hmoveto
          103 hlineto
          52 293 rlineto
          -96 callsubr
          -61 -61 -30 -42 -40 vhcurveto
          -5 hlineto
          45 257 rlineto
          -103 hlineto
          endchar
        </CharString>
        <CharString name="hbar">
          21 -21 450 88 55 65 -65 130 hstemhm
          414 107 hintmask 11011000
          14 hmoveto
          103 hlineto
          52 293 rlineto
          -96 callsubr
          -61 -61 -30 -42 -40 vhcurveto
          -5 hlineto
          22 127 rlineto
          144 hlineto
          hintmask 11101000
          12 65 rlineto
          -144 hlineto
          hintmask 11011000
          11 65 rlineto
          -103 hlineto
          hintmask 11101000
          -12 -65 rlineto
          -63 hlineto
          hintmask 11011000
          -12 -65 rlineto
          64 hlineto
          endchar
        </CharString>
        <CharString name="hcircumflex">
          21 -21 450 88 185 -20 45 135 hstemhm
          414 107 hintmask 00000000
          hintmask 11111000
          38 748 -92 callsubr
          -153 -883 rmoveto
          103 hlineto
          52 293 rlineto
          -96 callsubr
          -61 -61 -30 -42 -40 vhcurveto
          -5 hlineto
          hintmask 11101000
          45 257 rlineto
          -103 hlineto
          endchar
        </CharString>
        <CharString name="hookabovecomb">
          -624 591 59 callgsubr
          -91 85 vstem
          -148 591 rmoveto
          -102 callsubr
          -15 -9 -7 -24 hvcurveto
          -13 hlineto
          endchar
        </CharString>
        <CharString name="house">
          -20 0 49 hstem
          77 48 354 48 vstem
          77 hmoveto
          450 310 hlineto
          -225 253 -225 -253 rlineto
          48 -261 rmoveto
          241 vlineto
          177 199 177 -199 rlineto
          -241 vlineto
          endchar
        </CharString>
        <CharString name="hungarumlaut">
          36 callsubr
          8 357 vstem
          8 591 -61 callgsubr
          endchar
        </CharString>
        <CharString name="hyphen">
          6 callgsubr
        </CharString>
        <CharString name="i">
          -385 21 17 callsubr
          111 106 hstem
          13 230 4 callsubr
          endchar
        </CharString>
        <CharString name="i.loclTRK">
          -34 callgsubr
          112 105 hstem
          28 231 vstem
          138 -15 callgsubr
          -129 -29 callgsubr
        </CharString>
        <CharString name="iacute">
          -346 21 14 callsubr
          hstem
          28 317 vstem
          125 591 rmoveto
          89 hlineto
          131 15 callsubr
          -112 hlineto
          -204 -29 callgsubr
        </CharString>
        <CharString name="iacute_j.loclNLD">
          -107 20 callsubr
          85 132 hstem
          28 592 vstem
          137 591 -95 callgsubr
          156 -132 -95 callgsubr
          -479 24 callsubr
          126 -708 -82 callgsubr
        </CharString>
        <CharString name="ibreve">
          -34 callgsubr
          94 58 callgsubr
          46 72 hintmask 11011000
          185 600 -85 callsubr
          hintmask 11101000
          -53 callgsubr
          hintmask 11011000
          -87 callgsubr
          -157 -600 -58 callgsubr
        </CharString>
        <CharString name="icircumflex">
          -34 callgsubr
          82 57 callgsubr
          22 306 hintmask 11101000
          22 588 rmoveto
          101 hlineto
          hintmask 11011000
          69 76 rlineto
          hintmask 11101000
          -98 callsubr
          -122 -29 callgsubr
        </CharString>
        <CharString name="idieresis">
          -34 callgsubr
          115 102 hstem
          28 319 vstem
          38 621 rmoveto
          96 hlineto
          18 102 rlineto
          -96 hlineto
          176 -102 rmoveto
          97 hlineto
          18 -22 callgsubr
          -222 -29 callgsubr
        </CharString>
        <CharString name="igrave">
          -346 21 14 callsubr
          hstem
          28 201 vstem
          147 591 rmoveto
          82 hlineto
          -33 callsubr
          -105 hlineto
          -1 -3 rlineto
          -34 -720 -58 callgsubr
        </CharString>
        <CharString name="ij">
          -146 20 callsubr
          111 106 hstem
          13 469 vstem
          121 7 callsubr
          220 -106 -31 callsubr
          -366 24 callsubr
          102 -708 -82 callgsubr
        </CharString>
        <CharString name="imacron">
          -34 callgsubr
          133 77 hstem
          28 322 vstem
          31 639 rmoveto
          305 hlineto
          14 77 rlineto
          -305 hlineto
          -17 -716 -58 callgsubr
        </CharString>
        <CharString name="infinity">
          89 141 75 160 78 hstem
          43 81 461 82 vstem
          169 141 rmoveto
          69 54 43 52 52 hvcurveto
          -61 38 50 -34 66 hhcurveto
          95 74 81 105 74 -49 53 -78 -71 -55 -49 -46 -46 hvcurveto
          54 -35 -45 41 -73 hhcurveto
          -97 -75 -84 -101 -75 48 -53 78 hvcurveto
          15 75 rmoveto
          -35 -25 28 37 54 47 41 41 43 25 -30 -50 28 hvcurveto
          -43 -40 -40 -37 -44 hhcurveto
          316 hmoveto
          -41 -27 29 52 -30 hvcurveto
          48 47 35 31 42 hhcurveto
          35 24 -28 -37 -45 -37 -50 -48 hvcurveto
          endchar
        </CharString>
        <CharString name="integral">
          -350 -141 56 889 55 hstem
          -58 398 vstem
          -58 -141 rmoveto
          115 53 17 95 17 hvcurveto
          27 152 82 624 0 vvcurveto
          43 8 39 14 47 hhcurveto
          10 55 rlineto
          -115 -56 -18 -94 -16 hvcurveto
          -27 -153 -83 -621 0 vvcurveto
          -44 -7 -37 -14 -47 hhcurveto
          endchar
        </CharString>
        <CharString name="integralbt">
          -20 -250 55 hstem
          86 348 vstem
          86 -250 rmoveto
          111 58 18 94 17 hvcurveto
          14 80 78 477 70 440 rrcurveto
          -86 hlineto
          -77 -478 -82 -519 0 vvcurveto
          -43 -7 -40 -14 -47 hhcurveto
          endchar
        </CharString>
        <CharString name="integraltp">
          -20 804 55 hstem
          169 348 vstem
          169 -250 rmoveto
          86 hlineto
          77 478 82 519 0 vvcurveto
          43 7 40 14 47 hhcurveto
          9 55 -53 callsubr
          -58 -18 -94 -17 hvcurveto
          -14 -80 -78 -477 -70 -440 rrcurveto
          endchar
        </CharString>
        <CharString name="intersection">
          96 21 -21 599 77 hstem
          571 80 vstem
          44 hmoveto
          79 hlineto
          72 411 rlineto
          105 18 97 83 109 hhcurveto
          90 62 -65 -89 -12 -1 -11 -2 -11 hvcurveto
          -72 -411 rlineto
          79 hlineto
          72 410 rlineto
          3 16 1 16 16 vvcurveto
          125 -97 93 -139 -140 -132 -113 -153 -27 vhcurveto
          endchar
        </CharString>
        <CharString name="iogonek">
          -346 -190 66 145 17 callsubr
          112 105 hstem
          -41 93 vstem
          157 723 rmoveto
          -19 -105 rlineto
          102 hlineto
          19 105 rlineto
          -231 -723 rmoveto
          1 hlineto
          -35 -26 -35 -35 -54 -45 callsubr
          30 -50 callsubr
          endchar
        </CharString>
        <CharString name="itilde">
          -34 callgsubr
          107 39 callsubr
          11 349 hintmask 00000000
          hintmask 11101000
          11 26 callgsubr
          hintmask 11011000
          -25 callsubr
          hintmask 11101000
          49 36 -33 54 hhcurveto
          hintmask 11011000
          63 34 51 59 11 hvcurveto
          -67 hlineto
          hintmask 11101000
          -54 callgsubr
          -49 -36 33 -55 hhcurveto
          -62 -34 -51 -59 -10 hvcurveto
          hintmask 11011000
          17 -613 -58 callgsubr
        </CharString>
        <CharString name="j">
          -385 -182 82 626 -20 111 106 hstem
          -108 351 vstem
          121 7 callsubr
          -171 -905 -82 callgsubr
        </CharString>
        <CharString name="jcircumflex">
          -385 -182 82 626 -20 82 57 callgsubr
          -108 419 hintmask 11101000
          5 588 rmoveto
          101 hlineto
          hintmask 11011000
          69 76 rlineto
          hintmask 11101000
          -98 callsubr
          -164 -905 -82 callgsubr
        </CharString>
        <CharString name="k">
          -107 21 17 callsubr
          217 -46 callsubr
          77 437 rlineto
          -103 hlineto
          endchar
        </CharString>
        <CharString name="kcommaaccent">
          -107 -146 94 73 17 callsubr
          217 -46 callsubr
          77 437 rlineto
          -103 hlineto
          -2 -953 -70 callgsubr
        </CharString>
        <CharString name="kgreenlandic">
          -107 21 -21 526 -46 callsubr
          42 240 rlineto
          -103 hlineto
          endchar
        </CharString>
        <CharString name="l">
          55 callgsubr
          hstem
          13 230 vstem
          13 hmoveto
          103 hlineto
          -32 callsubr
          endchar
        </CharString>
        <CharString name="lacute">
          55 callgsubr
          48 132 hstemhm
          13 361 hintmask 00000000
          hintmask 11110000
          154 751 -95 callgsubr
          -248 -883 rmoveto
          103 hlineto
          hintmask 11010000
          -32 callsubr
          endchar
        </CharString>
        <CharString name="lcaron">
          -304 21 -21 584 102 -102 139 hstemhm
          13 384 hintmask 11010000
          13 hmoveto
          103 hlineto
          hintmask 10110000
          -32 callsubr
          117 -248 rmoveto
          54 hlineto
          hintmask 11010000
          69 118 17 93 rlineto
          -101 hlineto
          -18 -102 rlineto
          38 hlineto
          endchar
        </CharString>
        <CharString name="lcommaaccent">
          -385 -146 94 73 -21 723 -20 hstem
          -28 271 vstem
          13 hmoveto
          103 hlineto
          -32 callsubr
          -168 -953 -70 callgsubr
        </CharString>
        <CharString name="ldot">
          -315 21 -21 299 117 307 -20 hstem
          13 339 vstem
          13 hmoveto
          103 hlineto
          -32 callsubr
          79 -424 rmoveto
          -26 callsubr
          endchar
        </CharString>
        <CharString name="less">
          -40 3 507 hstem
          42 529 vstem
          482 3 rmoveto
          16 96 64 callgsubr
          -509 -197 -20 -114 rlineto
          endchar
        </CharString>
        <CharString name="lessequal">
          -75 0 89 hstem
          -17 583 vstem
          477 124 rmoveto
          16 95 64 callgsubr
          -508 -197 -21 -113 rlineto
          -54 -320 22 callsubr
        </CharString>
        <CharString name="lira">
          -68 0 89 111 78 69 78 188 31 callgsubr
          30 111 rlineto
          165 hlineto
          13 78 rlineto
          -164 hlineto
          13 69 rlineto
          164 hlineto
          14 78 rlineto
          -163 hlineto
          16 89 -13 callsubr
          -14 -74 rlineto
          -81 hlineto
          -14 -78 rlineto
          82 hlineto
          -13 -69 rlineto
          -81 hlineto
          -13 -78 rlineto
          81 hlineto
          -19 -111 rlineto
          -71 hlineto
          endchar
        </CharString>
        <CharString name="logicalnot">
          -40 359 95 hstem
          57 498 vstem
          421 196 rmoveto
          89 hlineto
          45 258 rlineto
          -481 hlineto
          -17 -95 rlineto
          393 hlineto
          endchar
        </CharString>
        <CharString name="longs">
          -346 -182 85 538 85 120 85 hstem
          -100 456 vstem
          -20 -182 rmoveto
          99 30 65 63 12 hvcurveto
          116 654 -73 callsubr
          endchar
        </CharString>
        <CharString name="lozenge">
          -24 637 90 0 -20 hstemhm
          54 471 hintmask 01100000
          157 -132 rmoveto
          114 hlineto
          254 430 -102 429 rlineto
          -114 hlineto
          -255 -429 rlineto
          172 -340 rmoveto
          -72 332 rlineto
          hintmask 10100000
          199 347 73 -331 rlineto
          endchar
        </CharString>
        <CharString name="lslash">
          55 callgsubr
          hstem
          -13 285 vstem
          16 hmoveto
          103 hlineto
          62 352 76 53 15 85 -77 -53 51 286 rlineto
          -103 hlineto
          -65 -365 -76 -54 -15 -85 77 54 rlineto
          endchar
        </CharString>
        <CharString name="m">
          226 14 callgsubr
          hstemhm
          693 108 hintmask 11010000
          14 hmoveto
          103 hlineto
          53 297 rlineto
          94 16 66 59 67 hhcurveto
          40 27 -15 -52 -11 -2 -13 -2 -14 hvcurveto
          -61 -345 rlineto
          103 hlineto
          53 297 rlineto
          94 16 64 59 67 hhcurveto
          40 29 -15 -53 -11 -2 -12 -2 -14 hvcurveto
          -61 -345 rlineto
          103 hlineto
          64 359 rlineto
          4 21 2 18 18 vvcurveto
          89 -57 33 -83 -64 -62 -32 -51 -42 vhcurveto
          -7 hlineto
          59 -15 -49 24 -65 hhcurveto
          -65 -56 -30 -53 -42 hvcurveto
          -7 hlineto
          hintmask 10110000
          59 callsubr
        </CharString>
        <CharString name="macron">
          -291 622 77 hstem
          5 318 vstem
          5 622 -67 callsubr
          endchar
        </CharString>
        <CharString name="minus">
          -40 211 89 hstem
          45 488 vstem
          45 211 22 callsubr
        </CharString>
        <CharString name="minute">
          -421 512 174 hstem
          75 174 33 callgsubr
          endchar
        </CharString>
        <CharString name="multiply">
          -40 41 430 hstem
          50 481 vstem
          105 41 rmoveto
          179 150 122 -147 69 60 -123 147 179 152 -55 68 -179 -152 -120 147 -69 -60 121 -147 -179 -150 rlineto
          endchar
        </CharString>
        <CharString name="n">
          21 8 callsubr
          hintmask 11010000
          14 hmoveto
          103 hlineto
          52 293 rlineto
          -96 callsubr
          -66 -67 -35 -48 -39 vhcurveto
          -7 hlineto
          hintmask 10110000
          59 callsubr
        </CharString>
        <CharString name="nacute">
          14 callgsubr
          85 132 hstemhm
          414 107 hintmask 11011000
          297 591 -95 callgsubr
          -390 -723 rmoveto
          103 hlineto
          52 293 rlineto
          -96 callsubr
          -66 -67 -35 -48 -39 vhcurveto
          -7 hlineto
          hintmask 10111000
          59 callsubr
        </CharString>
        <CharString name="nacute.loclPLK">
          14 callgsubr
          85 132 hstemhm
          414 107 hintmask 11011000
          290 591 -55 callgsubr
          -323 -723 rmoveto
          103 hlineto
          52 293 rlineto
          -96 callsubr
          -66 -67 -35 -48 -39 vhcurveto
          -7 hlineto
          hintmask 10111000
          59 callsubr
        </CharString>
        <CharString name="napostrophe">
          12 21 -21 450 88 -63 51 58 102 hstemhm
          477 107 hintmask 00000000
          hintmask 10111000
          28 475 rmoveto
          53 hlineto
          46 callgsubr
          -9 -584 rmoveto
          103 hlineto
          52 293 rlineto
          hintmask 11011000
          -96 callsubr
          -66 -67 -35 -48 -39 vhcurveto
          -7 hlineto
          hintmask 10111000
          59 callsubr
        </CharString>
        <CharString name="ncaron">
          14 callgsubr
          82 135 hstemhm
          414 107 hintmask 11011000
          296 588 -93 callgsubr
          -200 -723 rmoveto
          103 hlineto
          52 293 rlineto
          -96 callsubr
          -66 -67 -35 -48 -39 vhcurveto
          -7 hlineto
          hintmask 10111000
          59 callsubr
        </CharString>
        <CharString name="ncommaaccent">
          -146 94 73 8 callsubr
          hintmask 11101000
          14 hmoveto
          103 hlineto
          52 293 rlineto
          -96 callsubr
          -66 -67 -35 -48 -39 vhcurveto
          -7 hlineto
          hintmask 11011000
          71 -80 vlineto
          41 -756 -70 callgsubr
        </CharString>
        <CharString name="nine">
          -68 -12 85 173 83 284 85 hstemhm
          34 106 -82 109 267 104 hintmask 00000000
          hintmask 11110100
          225 -12 rmoveto
          153 101 93 281 47 hvcurveto
          8 47 4 41 35 vvcurveto
          159 -82 54 -136 vhcurveto
          hintmask 11101100
          -141 -121 -108 -165 -106 59 -73 131 69 59 31 34 35 hvcurveto
          hintmask 11110100
          -146 -28 -42 -92 -113 hhcurveto
          -60 -28 32 58 12 1 13 2 14 hvcurveto
          -104 hlineto
          -3 -18 -2 -18 -17 vvcurveto
          -95 56 -66 135 vhcurveto
          hintmask 11101100
          46 341 rmoveto
          -74 -30 46 64 89 58 85 99 75 35 -45 -66 -95 -62 -78 -101 hvcurveto
          endchar
        </CharString>
        <CharString name="notequal">
          -75 103 89 123 90 hstem
          11 526 vstem
          72 25 rmoveto
          78 hlineto
          56 78 rlineto
          277 hlineto
          16 89 rlineto
          -230 hlineto
          87 123 rlineto
          165 hlineto
          16 90 rlineto
          -117 hlineto
          56 79 rlineto
          -78 hlineto
          -57 -79 rlineto
          -277 hlineto
          -16 -90 rlineto
          229 hlineto
          -87 -123 rlineto
          -163 hlineto
          -16 -89 rlineto
          116 hlineto
          endchar
        </CharString>
        <CharString name="ntilde">
          14 callgsubr
          107 39 callsubr
          414 107 hintmask 00000000
          hintmask 11010100
          183 26 callgsubr
          hintmask 11001100
          -25 callsubr
          -11 callgsubr
          hintmask 11001100
          -169 -613 rmoveto
          103 hlineto
          52 293 rlineto
          -96 callsubr
          -66 -67 -35 -48 -39 vhcurveto
          -7 hlineto
          hintmask 10101100
          59 callsubr
        </CharString>
        <CharString name="numbersign">
          -68 9 -21 186 86 145 86 207 -20 hstem
          10 533 vstem
          45 -12 rmoveto
          85 hlineto
          40 186 rlineto
          143 hlineto
          -40 -186 rlineto
          85 hlineto
          40 186 rlineto
          100 86 -82 hlineto
          31 145 rlineto
          96 86 -77 hlineto
          45 207 rlineto
          -86 hlineto
          -45 -207 rlineto
          -143 hlineto
          46 207 rlineto
          -86 hlineto
          -45 -207 rlineto
          -97 -86 79 hlineto
          -32 -145 rlineto
          -92 -86 74 hlineto
          104 86 rmoveto
          31 145 rlineto
          143 hlineto
          -32 -145 rlineto
          endchar
        </CharString>
        <CharString name="o">
          -34 callsubr
          hstem
          -38 callgsubr
          vstem
          245 -12 -105 callsubr
        </CharString>
        <CharString name="oacute">
          -34 callsubr
          53 132 hstem
          -38 callgsubr
          vstem
          272 591 -95 callgsubr
          -134 -96 callgsubr
        </CharString>
        <CharString name="oacute.loclPLK">
          -34 callsubr
          53 132 hstem
          -38 callgsubr
          vstem
          265 591 -55 callgsubr
          -67 -96 callgsubr
        </CharString>
        <CharString name="obreve">
          -34 callsubr
          62 58 callgsubr
          23 101 57 72 175 102 hintmask 11011110
          320 600 -85 callsubr
          hintmask 11101110
          -53 callgsubr
          hintmask 11011110
          -87 callgsubr
          -75 -612 -105 callsubr
        </CharString>
        <CharString name="ocircumflex">
          -34 callsubr
          50 135 -59 59 9 callsubr
          hintmask 11101100
          160 17 callgsubr
          hintmask 11011100
          69 76 rlineto
          hintmask 11101100
          -92 callgsubr
          endchar
        </CharString>
        <CharString name="odieresis">
          -34 callsubr
          83 102 hstem
          -38 callgsubr
          vstem
          180 -57 callsubr
          -147 -96 callgsubr
        </CharString>
        <CharString name="oe">
          320 -12 85 164 78 138 85 hstem
          20 107 295 96 285 104 vstem
          249 -12 rmoveto
          87 63 35 55 44 hvcurveto
          -61 36 67 -29 100 hhcurveto
          117 98 62 131 21 hvcurveto
          -101 hlineto
          -78 -13 -56 -32 -68 hhcurveto
          -87 -39 41 84 13 0 13 3 15 hvcurveto
          370 hlineto
          8 40 rlineto
          5 27 3 25 23 vvcurveto
          124 -74 62 -136 -90 -65 -35 -55 -46 vhcurveto
          61 -35 -66 29 -95 hhcurveto
          -209 -71 -178 -173 -136 78 -63 151 hvcurveto
          286 327 rmoveto
          90 24 52 50 86 hhcurveto
          64 42 -29 -73 -12 0 -13 -4 -13 hvcurveto
          -551 -242 rmoveto
          -83 -38 38 84 24 2 26 6 29 hvcurveto
          101 17 47 78 102 hhcurveto
          82 39 -38 -86 -26 -2 -27 -6 -31 hvcurveto
          -98 -18 -49 -74 -99 hhcurveto
          endchar
        </CharString>
        <CharString name="ogonek">
          -291 -182 66 -66 194 hstemhm
          75 93 hintmask 10100000
          164 -21 callsubr
        </CharString>
        <CharString name="ograve">
          -34 callsubr
          53 132 hstem
          -38 callgsubr
          vstem
          278 591 -78 callsubr
          52 -732 -105 callsubr
        </CharString>
        <CharString name="ohorn">
          28 callgsubr
          hstem
          -38 callgsubr
          vstem
          531 686 -101 callsubr
          endchar
        </CharString>
        <CharString name="ohungarumlaut">
          -34 callsubr
          53 132 hstem
          -38 callgsubr
          vstem
          198 591 -61 callgsubr
          -197 -96 callgsubr
        </CharString>
        <CharString name="omacron">
          -34 callsubr
          84 77 hstem
          -38 callgsubr
          vstem
          174 622 -67 callsubr
          58 -711 -105 callsubr
        </CharString>
        <CharString name="one">
          -68 0 85 463 63 75 -20 hstem
          32 449 vstem
          32 hmoveto
          434 hlineto
          15 85 rlineto
          -159 hlineto
          106 601 rlineto
          -46 hlineto
          -76 -39 -107 -30 -61 -6 -11 -63 rcurveline
          174 hlineto
          -82 -463 rlineto
          -172 hlineto
          endchar
        </CharString>
        <CharString name="oneeighth">
          29 callgsubr
          -31 62 29 callsubr
          497 70 -33 69 84 70 -50 70 hintmask 1101101011000000
          57 -12 -25 callgsubr
          -673 -370 rmoveto
          234 hlineto
          11 62 rlineto
          -78 hlineto
          hintmask 1101110101000000
          52 296 rlineto
          -34 hlineto
          -38 -19 -57 -16 -34 -3 -8 -45 rcurveline
          87 hlineto
          -38 -213 rlineto
          -86 hlineto
          551 -402 rmoveto
          89 51 55 65 30 -14 26 -26 16 hvcurveto
          hintmask 1110101010100000
          56 callgsubr
          -35 38 -77 -80 -51 28 callsubr
          hintmask 1101101101000000
          -50 -21 -20 -39 -42 vvcurveto
          hintmask 1101110101000000
          -51 34 -39 86 vhcurveto
          hintmask 1110101010100000
          29 22 callgsubr
          hintmask 1101101101000000
          -27 -160 rmoveto
          -34 -18 15 27 37 27 22 42 34 17 -14 -25 -41 -34 -21 -34 hvcurveto
          endchar
        </CharString>
        <CharString name="onehalf">
          210 0 62 -53 -21 318 60 -37 61 29 callsubr
          527 63 callsubr
          71 hintmask 0000000000000000
          hintmask 0101101010000000
          52 -12 -25 callgsubr
          -663 -369 rmoveto
          234 hlineto
          10 61 rlineto
          -78 hlineto
          hintmask 1001110010000000
          52 296 rlineto
          -34 hlineto
          -37 -19 -57 -12 callgsubr
          409 -390 rmoveto
          254 hlineto
          10 62 rlineto
          -164 hlineto
          hintmask 1010101110000000
          44 55 156 43 117 vvcurveto
          53 -36 36 46 callsubr
          6 19 31 callsubr
        </CharString>
        <CharString name="onequarter">
          62 callgsubr
          190 61 29 callsubr
          49 756 hintmask 00000000
          hintmask 01011011
          49 -12 -25 callgsubr
          -663 -369 rmoveto
          233 hlineto
          11 61 rlineto
          -78 hlineto
          hintmask 10011101
          52 296 rlineto
          -34 hlineto
          -37 -19 -57 -12 callgsubr
          548 -390 rmoveto
          69 hlineto
          hintmask 00111011
          14 79 rlineto
          43 hlineto
          hintmask 10011011
          53 callgsubr
          -15 -34 -14 -28 -14 44 callsubr
          -78 hlineto
          hintmask 00111011
          -36 -89 -39 -76 -52 -67 -9 -55 rcurveline
          158 hlineto
          endchar
        </CharString>
        <CharString name="ordfeminine">
          -254 375 62 237 62 -48 -20 60 -20 hstemhm
          57 75 139 67 hintmask 11001100
          338 448 rmoveto
          hintmask 10111100
          7 40 203 13 70 vhcurveto
          -59 hlineto
          -20 -40 rlineto
          -4 hlineto
          hintmask 11001100
          33 -16 -28 15 -45 hhcurveto
          -98 -64 -104 -129 -86 43 -42 66 39 40 20 39 23 hvcurveto
          3 -8 hlineto
          -34 23 -17 34 22 16 6 4 8 vhcurveto
          8 45 rlineto
          -24 hlineto
          -12 -8 5 13 hvcurveto
          -151 -11 rmoveto
          -38 -17 25 45 82 30 85 70 42 19 -25 -46 -49 -28 -117 -78 hvcurveto
          endchar
        </CharString>
        <CharString name="ordmasculine">
          -259 374 61 240 61 hstem
          59 75 185 75 vstem
          210 374 rmoveto
          137 47 117 113 90 -51 42 -100 -137 -47 -118 -113 -89 51 -42 100 hvcurveto
          -1 61 rmoveto
          -50 -25 23 53 15 1 17 4 19 hvcurveto
          63 11 30 50 64 hhcurveto
          50 25 -24 -53 -14 -1 -15 -3 -18 hvcurveto
          -64 -10 -30 -52 -66 hhcurveto
          endchar
        </CharString>
        <CharString name="orthogonal">
          355 0 73 hstem
          135 638 vstem
          135 hmoveto
          625 hlineto
          13 73 rlineto
          -546 hlineto
          97 552 rlineto
          -78 hlineto
          endchar
        </CharString>
        <CharString name="oslash">
          -13 -12 85 380 85 hstem
          37 107 297 108 vstem
          -1 -49 -65 callsubr
        </CharString>
        <CharString name="oslashacute">
          -13 -12 85 380 85 53 132 hstem
          37 107 297 108 vstem
          308 591 -95 callgsubr
          -416 -772 -65 callsubr
        </CharString>
        <CharString name="otilde">
          -34 callsubr
          75 77 -44 77 9 callsubr
          hintmask 00000000
          hintmask 11101100
          158 26 callgsubr
          hintmask 11011100
          -25 callsubr
          hintmask 11101100
          49 36 -33 54 hhcurveto
          hintmask 11011100
          63 35 51 59 10 hvcurveto
          -67 hlineto
          hintmask 11101100
          -54 callgsubr
          -49 -36 33 -54 hhcurveto
          -63 -34 -51 -59 -10 hvcurveto
          hintmask 11011100
          87 -625 -105 callsubr
        </CharString>
        <CharString name="p">
          -152 -21 161 86 377 75 -75 87 hstemhm
          425 107 hintmask 11011000
          1 callgsubr
          -69 63 -112 -63 -58 -29 -53 -41 hvcurveto
          -6 hlineto
          hintmask 11101000
          70 -80 vlineto
          158 -452 rmoveto
          -75 -33 41 76 hvcurveto
          hintmask 11011000
          54 callgsubr
          vhcurveto
          hintmask 11101000
          -127 -47 -129 -117 vhcurveto
          endchar
        </CharString>
        <CharString name="paragraph">
          -81 625 61 hstem
          43 553 vstem
          150 -168 rmoveto
          84 hlineto
          140 793 rlineto
          66 hlineto
          -140 -793 rlineto
          84 hlineto
          140 793 rlineto
          61 hlineto
          11 61 rlineto
          -286 hlineto
          -155 -112 -94 -168 -115 83 -56 98 hvcurveto
          endchar
        </CharString>
        <CharString name="parenleft">
          -291 735 -20 hstem
          47 102 vstem
          153 -157 rmoveto
          68 hlineto
          -44 91 -28 117 118 vvcurveto
          204 98 204 131 158 vhcurveto
          -69 hlineto
          -166 -150 -96 -196 -207 vvcurveto
          -126 36 -116 70 -97 vhcurveto
          endchar
        </CharString>
        <CharString name="parenright">
          -291 735 -20 hstem
          164 101 vstem
          -65 -157 rmoveto
          68 hlineto
          164 150 98 197 209 vvcurveto
          124 -36 117 -70 95 vhcurveto
          -68 hlineto
          44 -90 29 -116 -117 vvcurveto
          -201 -101 -210 -128 -158 vhcurveto
          endchar
        </CharString>
        <CharString name="partialdiff">
          -130 -12 82 303 76 208 78 hstem
          14 100 259 93 vstem
          167 -12 rmoveto
          141 103 149 228 42 hvcurveto
          9 47 4 44 43 vvcurveto
          166 -86 70 -100 -48 -36 -13 -16 -29 vhcurveto
          -15 -83 rlineto
          18 28 36 16 46 hhcurveto
          76 35 -64 -106 -31 -3 -49 -11 -26 hvcurveto
          -4 hlineto
          26 -10 -34 42 -74 hhcurveto
          -98 -125 -116 -184 -91 48 -70 105 hvcurveto
          9 82 rmoveto
          -41 -21 33 53 110 72 107 67 53 26 -44 -36 4 hvcurveto
          -114 -28 -63 -109 -69 hhcurveto
          endchar
        </CharString>
        <CharString name="percent">
          265 -12 66 -33 -21 283 66 -12 66 229 66 -12 -20 hstemhm
          77 87 151 87 81 87 152 86 hintmask 1001101111000000
          222 337 rmoveto
          106 54 69 105 16 hvcurveto
          3 18 1 18 17 vvcurveto
          94 -51 40 -94 -101 -55 -63 -102 -18 vhcurveto
          -4 -21 -2 -22 -21 vvcurveto
          -93 51 -39 94 vhcurveto
          hintmask 0101011111000000
          -133 -337 rmoveto
          92 hlineto
          620 686 rlineto
          -93 hlineto
          -487 -283 rmoveto
          -40 -17 22 50 hvcurveto
          hintmask 1001101111000000
          17 1 19 4 22 vhcurveto
          54 11 23 45 54 hhcurveto
          41 17 -22 -50 -16 -1 -17 -4 -22 hvcurveto
          hintmask 0101011111000000
          -56 -10 -23 -46 -56 hhcurveto
          hintmask 1010101111000000
          407 -415 rmoveto
          100 55 60 100 19 hvcurveto
          5 23 1 22 22 vvcurveto
          94 -51 40 -93 -98 -56 -59 -98 -19 vhcurveto
          -5 -24 -3 -25 -23 vvcurveto
          -93 52 -39 93 vhcurveto
          -1 66 rmoveto
          -40 -17 22 50 16 1 17 4 22 hvcurveto
          56 10 24 46 54 hhcurveto
          41 18 -22 -50 -16 -1 -17 -4 -22 hvcurveto
          -56 -11 -23 -46 -56 hhcurveto
          endchar
        </CharString>
        <CharString name="period">
          -346 0 117 hstem
          29 133 vstem
          29 hmoveto
          -26 callsubr
          endchar
        </CharString>
        <CharString name="periodcentered">
          -291 299 117 hstem
          108 133 vstem
          108 299 rmoveto
          -26 callsubr
          endchar
        </CharString>
        <CharString name="perthousand">
          376 -12 65 -32 -21 280 65 -5 66 226 65 -11 -20 hstemhm
          41 83 131 83 2 83 131 83 27 83 130 84 hintmask 0000000000000000
          hintmask 0101101100000000
          173 340 rmoveto
          95 49 65 102 17 hvcurveto
          3 21 1 20 19 vvcurveto
          92 -46 38 -85 -89 -50 -56 -96 -18 vhcurveto
          -6 -25 -3 -26 -25 vvcurveto
          -90 46 -39 86 vhcurveto
          -122 -340 rmoveto
          81 hlineto
          hintmask 0001011000000000
          497 686 rlineto
          -83 hlineto
          -374 -280 rmoveto
          -32 -16 20 47 hvcurveto
          hintmask 0000101100000000
          18 1 19 5 23 vhcurveto
          55 11 20 44 45 hhcurveto
          34 15 -21 -47 -14 -1 -15 -3 -20 hvcurveto
          hintmask 0001011000000000
          -59 -8 -21 -50 -50 hhcurveto
          hintmask 1010000011000000
          300 -418 rmoveto
          97 49 68 105 15 hvcurveto
          3 19 1 18 17 vvcurveto
          92 -46 38 -85 -92 -49 -59 -99 -18 vhcurveto
          -5 -24 -2 -24 -22 vvcurveto
          -90 46 -39 86 vhcurveto
          hintmask 1010000010110000
          323 hmoveto
          92 49 60 98 19 hvcurveto
          4 24 2 23 22 vvcurveto
          92 -46 38 -86 -95 -50 -65 -104 -15 vhcurveto
          -4 -21 -1 -19 -19 vvcurveto
          -90 46 -39 85 vhcurveto
          -324 65 rmoveto
          -32 -16 21 47 17 1 20 5 23 hvcurveto
          hintmask 0010000001000000
          54 10 21 45 45 hhcurveto
          34 15 -21 -47 -14 -1 -14 -3 -19 hvcurveto
          hintmask 1010000010110000
          -60 -8 -20 -52 -51 hhcurveto
          323 hmoveto
          -32 -15 21 47 15 1 15 3 21 hvcurveto
          58 9 21 50 48 hhcurveto
          34 14 -21 -47 -16 -1 -17 -3 -22 hvcurveto
          -56 -9 -21 -48 -49 hhcurveto
          endchar
        </CharString>
        <CharString name="peseta">
          470 -12 82 -49 -21 58 15 182 95 91 85 -71 83 53 95 hstemhm
          470 105 57 100 -48 108 126 109 -73 102 hintmask 1001101101100000
          563 -11 rmoveto
          24 31 6 8 18 hvcurveto
          hintmask 0011101101100000
          10 55 rlineto
          hintmask 1001011101100000
          -42 22 54 -28 91 hhcurveto
          108 106 53 132 hvcurveto
          165 -235 -49 94 vvcurveto
          28 21 44 71 vhcurveto
          hintmask 1001011101010000
          50 20 -26 -33 -5 0 -6 -3 -11 hvcurveto
          98 hlineto
          2 6 5 23 16 vvcurveto
          69 -59 50 -106 vhcurveto
          hintmask 0101101101100000
          -31 -28 -4 -8 -26 hvcurveto
          -158 hlineto
          34 146 rlineto
          -107 hlineto
          -27 -146 rlineto
          -36 hlineto
          99 -5 -62 61 -133 hhcurveto
          -176 hlineto
          -121 -686 rlineto
          110 hlineto
          45 255 rlineto
          86 hlineto
          130 85 72 114 31 hvcurveto
          30 hlineto
          -57 -321 rlineto
          hintmask 1001101101100000
          -3 -17 -2 -16 -10 vvcurveto
          -48 23 -40 70 vhcurveto
          -376 361 rmoveto
          42 241 rlineto
          73 hlineto
          67 33 -32 -57 -93 -62 -59 -77 hvcurveto
          hintmask 1001101110100000
          553 -280 rmoveto
          -47 -37 20 49 hvcurveto
          hintmask 0011101110100000
          5 0 5 3 16 vhcurveto
          -95 hlineto
          -5 -16 -3 -20 -13 vvcurveto
          -15 3 -15 6 -13 vhcurveto
          -29 hlineto
          -25 -12 11 21 4 1 8 4 26 hvcurveto
          hintmask 1001101101100000
          53 298 rlineto
          75 hlineto
          -13 -21 -11 -29 -25 -158 234 49 -105 vvcurveto
          hintmask 1001101110100000
          -56 -52 -26 -50 vhcurveto
          endchar
        </CharString>
        <CharString name="pi">
          89 21 -21 441 85 hstem
          433 103 vstem
          45 hmoveto
          107 hlineto
          55 87 73 229 32 125 rrcurveto
          185 hlineto
          -52 -294 rlineto
          -8 -48 -4 -37 -26 vvcurveto
          -17 2 -13 3 -6 vhcurveto
          101 hlineto
          -2 9 -1 11 13 vvcurveto
          28 5 39 10 56 vhcurveto
          50 285 rlineto
          99 hlineto
          25 85 rlineto
          -469 hlineto
          -100 -60 -11 -19 -33 hvcurveto
          4 -68 rlineto
          9 28 35 4 73 hhcurveto
          -26 -125 -72 -212 -60 -104 rrcurveto
          endchar
        </CharString>
        <CharString name="plus">
          -40 21 -21 210 90 hstem
          46 488 vstem
          197 hmoveto
          94 hlineto
          37 210 rlineto
          190 hlineto
          16 90 rlineto
          -190 hlineto
          38 211 rlineto
          -94 hlineto
          -37 48 callsubr
          endchar
        </CharString>
        <CharString name="plusminus">
          -75 0 89 255 90 hstem
          -18 548 vstem
          195 134 rmoveto
          93 hlineto
          36 210 rlineto
          190 hlineto
          16 90 rlineto
          -190 hlineto
          38 211 rlineto
          -93 hlineto
          -38 48 callsubr
          -249 -344 rmoveto
          471 hlineto
          17 89 rlineto
          -472 hlineto
          endchar
        </CharString>
        <CharString name="product">
          199 629 94 hstem
          58 796 vstem
          58 -128 rmoveto
          110 hlineto
          134 757 rlineto
          327 hlineto
          -133 -757 rlineto
          109 hlineto
          134 757 rlineto
          97 hlineto
          18 94 rlineto
          -741 hlineto
          -18 -94 rlineto
          96 hlineto
          endchar
        </CharString>
        <CharString name="q">
          -152 -21 161 -51 callsubr
          hstemhm
          20 107 hintmask 11101000
          315 -173 rmoveto
          103 hlineto
          hintmask 11011000
          123 699 rlineto
          -82 hlineto
          hintmask 11101000
          -22 -70 rlineto
          -6 hlineto
          54 -28 -57 28 -73 hhcurveto
          -162 -91 -162 -192 -135 67 -61 104 68 52 27 45 39 hvcurveto
          6 hlineto
          -127 15 rmoveto
          -70 -32 33 81 130 48 133 121 71 32 -43 -80 -116 -53 -138 -117 hvcurveto
          endchar
        </CharString>
        <CharString name="question">
          0 117 491 90 hstem
          74 104 252 112 vstem
          202 185 rmoveto
          98 hlineto
          7 37 rlineto
          19 110 216 13 197 vvcurveto
          99 -77 57 -123 -166 -100 -105 -134 -2 vhcurveto
          104 hlineto
          28 17 121 139 81 15 -46 -34 vhcurveto
          -1 -130 -192 -6 -26 -155 rrcurveto
          -45 -237 19 callgsubr
        </CharString>
        <CharString name="questiondown">
          -13 -172 90 491 117 hstem
          48 113 252 104 vstem
          292 409 52 callsubr
          -64 -698 rmoveto
          165 100 105 134 3 hvcurveto
          -104 hlineto
          -28 -18 -121 -139 -80 -15 46 34 130 192 6 27 155 vhcurveto
          9 52 rlineto
          -99 hlineto
          -6 -37 rlineto
          -19 -110 -217 -13 -197 vvcurveto
          -99 77 -57 124 vhcurveto
          endchar
        </CharString>
        <CharString name="quotedbl">
          -233 408 278 hstemhm
          84 68 112 67 hintmask 00000000
          hintmask 11100000
          84 408 rmoveto
          68 hlineto
          47 12 callgsubr
          180 -132 rmoveto
          67 hlineto
          48 12 callgsubr
          endchar
        </CharString>
        <CharString name="quotedblbase">
          -240 0 117 hstem
          4 332 -16 callsubr
          105 -141 rmoveto
          58 hlineto
          81 151 18 107 -70 callsubr
          -21 -117 rlineto
          44 hlineto
          endchar
        </CharString>
        <CharString name="quotedblleft">
          -240 428 117 141 -20 hstem
          56 331 vstem
          56 428 30 callgsubr
          -44 hlineto
          69 35 callsubr
          155 -107 rmoveto
          111 hlineto
          21 117 rlineto
          -44 hlineto
          69 35 callsubr
          endchar
        </CharString>
        <CharString name="quotedblright">
          -240 569 117 hstem
          76 331 18 callsubr
          105 -141 rmoveto
          58 hlineto
          80 151 19 107 -71 callgsubr
          -20 -117 rlineto
          44 hlineto
          endchar
        </CharString>
        <CharString name="quoteleft">
          -385 428 117 141 -20 hstem
          84 158 vstem
          84 428 rmoveto
          112 hlineto
          21 117 rlineto
          -45 hlineto
          70 35 callsubr
          endchar
        </CharString>
        <CharString name="quotereversed">
          -385 569 117 hstem
          80 131 vstem
          109 435 rmoveto
          58 hlineto
          -21 134 rlineto
          45 hlineto
          20 117 -70 callsubr
          -20 -107 rlineto
          endchar
        </CharString>
        <CharString name="quoteright">
          -385 569 117 hstem
          76 157 18 callsubr
          endchar
        </CharString>
        <CharString name="quotesinglbase">
          -385 0 117 hstem
          4 158 -16 callsubr
          endchar
        </CharString>
        <CharString name="quotesingle">
          -419 686 -20 hstem
          84 68 vstem
          84 408 rmoveto
          68 hlineto
          47 12 callgsubr
          endchar
        </CharString>
        <CharString name="r">
          -9 callgsubr
          hstemhm
          14 363 hintmask 11001000
          14 hmoveto
          103 38 callsubr
          103 18 62 42 74 hhcurveto
          37 hlineto
          hintmask 10011000
          18 98 rlineto
          hintmask 11001000
          0 -20 8 -29 -70 -40 -46 -47 -26 vhcurveto
          -6 hlineto
          hintmask 10101000
          2 81 rlineto
          -81 hlineto
          endchar
        </CharString>
        <CharString name="racute">
          -9 callgsubr
          81 132 hstemhm
          14 392 hintmask 11001100
          186 591 -95 callgsubr
          -279 -723 -67 callgsubr
        </CharString>
        <CharString name="radical">
          -75 -148 1005 hstem
          24 612 vstem
          204 -148 rmoveto
          93 hlineto
          339 1005 rlineto
          -73 hlineto
          -289 -871 -3 26 -3 30 -6 31 rlinecurve
          -61 319 -177 -69 10 -66 80 29 rlineto
          endchar
        </CharString>
        <CharString name="rcaron">
          -9 callgsubr
          78 135 hstemhm
          14 396 hintmask 11001100
          185 588 -93 callgsubr
          -89 -723 -67 callgsubr
        </CharString>
        <CharString name="rcommaaccent">
          -274 -146 94 73 0 callsubr
          hstemhm
          -27 404 -20 callsubr
          -134 -756 -70 callgsubr
        </CharString>
        <CharString name="registered">
          113 -12 52 257 59 135 59 96 52 hstem
          13 54 156 71 174 72 129 -45 callgsubr
          -145 98 rmoveto
          71 159 107 hlineto
          80 -159 rlineto
          75 hlineto
          -87 171 rlineto
          48 19 23 43 55 vvcurveto
          73 -42 51 -85 vhcurveto
          -190 hlineto
          71 -194 rmoveto
          135 109 vlineto
          42 23 -23 -42 -45 -26 -25 -39 hvcurveto
          endchar
        </CharString>
        <CharString name="revlogicalnot">
          -40 359 95 hstem
          35 527 vstem
          35 196 rmoveto
          88 hlineto
          29 163 rlineto
          393 -38 callsubr
          -482 hlineto
          endchar
        </CharString>
        <CharString name="ring">
          -291 563 49 97 49 hstem
          68 50 99 50 vstem
          154 563 -62 callsubr
          endchar
        </CharString>
        <CharString name="s">
          50 callsubr
          -35 callgsubr
          hintmask 00000000
          hintmask 11101000
          220 -12 -7 callsubr
          hintmask 11011000
          169 -287 -51 95 vvcurveto
          28 27 40 90 vhcurveto
          hintmask 11010100
          67 26 -27 -35 -6 -1 -7 -1 -6 hvcurveto
          100 hlineto
          2 4 5 21 17 vvcurveto
          71 -72 51 -126 -127 -98 -64 -109 vhcurveto
          hintmask 11011000
          -162 285 52 -108 vvcurveto
          -52 -63 -25 -65 vhcurveto
          hintmask 11101000
          5 callsubr
        </CharString>
        <CharString name="sacute">
          50 callsubr
          53 132 -35 callgsubr
          hintmask 11101100
          262 591 -95 callgsubr
          hintmask 11110100
          -149 -735 -91 callsubr
          endchar
        </CharString>
        <CharString name="sacute.loclPLK">
          50 callsubr
          53 132 -35 callgsubr
          hintmask 11101100
          255 591 -55 callgsubr
          hintmask 11110100
          -82 -735 -91 callsubr
          endchar
        </CharString>
        <CharString name="scaron">
          50 callsubr
          50 135 -35 callgsubr
          hintmask 11101100
          261 588 -93 callgsubr
          hintmask 11110100
          41 -735 -91 callsubr
          endchar
        </CharString>
        <CharString name="scedilla">
          -107 15 callgsubr
          25 80 -59 -21 465 83 hstemhm
          3 105 -49 108 66 84 27 110 -77 105 hintmask 0000000000000000
          hintmask 1000110100100000
          475 374 rmoveto
          2 4 5 21 17 vvcurveto
          71 -72 51 -126 -127 -98 -64 -109 vhcurveto
          hintmask 1001010101000000
          -162 285 52 -108 vvcurveto
          -52 -63 -25 -65 vhcurveto
          hintmask 1001011001000000
          -60 -48 21 51 3 1 11 2 9 hvcurveto
          -101 hlineto
          0 -7 -22 -22 vvcurveto
          -66 52 -54 119 -11 vhcurveto
          hintmask 1010110111000000
          -24 -67 rlineto
          47 -28 callgsubr
          hintmask 0100110101000000
          -9 -49 rlineto
          hintmask 1010110111000000
          -19 callgsubr
          8 24 rlineto
          hintmask 1000110101000000
          112 6 100 54 125 169 -287 -51 95 vvcurveto
          28 27 40 90 vhcurveto
          hintmask 1000110100100000
          67 26 -27 -35 -6 -1 -7 -1 -6 hvcurveto
          endchar
        </CharString>
        <CharString name="scircumflex">
          50 callsubr
          50 135 -59 59 -35 callgsubr
          hintmask 11100110
          150 17 callgsubr
          hintmask 11010110
          69 76 rlineto
          hintmask 11101010
          -98 callsubr
          -59 -735 -7 callsubr
          hintmask 11100110
          169 -287 -51 95 vvcurveto
          28 27 40 90 vhcurveto
          hintmask 11100101
          67 26 -27 -35 -6 -1 -7 -1 -6 hvcurveto
          100 hlineto
          2 4 5 21 17 vvcurveto
          71 -72 51 -126 -127 -98 -64 -109 vhcurveto
          hintmask 11100110
          -162 285 52 -108 vvcurveto
          -52 -63 -25 -65 vhcurveto
          hintmask 11101010
          5 callsubr
        </CharString>
        <CharString name="scommaaccent">
          -107 -146 94 40 82 385 83 -35 callgsubr
          hintmask 00000000
          hintmask 11110100
          220 -12 -91 callsubr
          -100 -218 rmoveto
          55 hlineto
          hintmask 11101100
          66 93 15 85 rlineto
          -103 58 callsubr
          40 hlineto
          endchar
        </CharString>
        <CharString name="second">
          -232 512 174 hstem
          75 337 33 callgsubr
          101 -174 rmoveto
          90 hlineto
          84 170 -1 4 -71 callgsubr
          endchar
        </CharString>
        <CharString name="section">
          -68 -182 82 715 83 hstemhm
          0 111 -71 107 -45 109 127 110 -46 107 -70 111 hintmask 00000000
          hintmask 11100100
          202 -182 rmoveto
          146 100 66 113 48 -25 32 -33 25 hvcurveto
          hintmask 11001010
          65 32 54 53 73 174 -298 -12 111 vvcurveto
          23 18 59 110 vhcurveto
          hintmask 11001001
          73 27 -28 -34 -4 0 -5 -2 -10 hvcurveto
          106 hlineto
          3 6 4 21 14 vvcurveto
          71 -73 52 -130 -147 -98 -66 -112 -49 23 -33 34 -25 vhcurveto
          hintmask 11010100
          -65 -32 -54 -54 -73 -173 298 12 -111 vvcurveto
          -21 -17 -61 -111 vhcurveto
          hintmask 11100010
          -73 -26 27 36 4 0 4 2 11 hvcurveto
          -106 hlineto
          -3 -6 -4 -20 -14 vvcurveto
          hintmask 11100100
          -72 72 -52 130 vhcurveto
          hintmask 11010010
          125 322 rmoveto
          -86 36 -94 26 76 vvcurveto
          44 27 32 48 21 vhcurveto
          86 -37 94 -25 -76 vvcurveto
          -44 -28 -32 -47 -21 vhcurveto
          endchar
        </CharString>
        <CharString name="semicolon">
          -329 0 117 292 117 hstem
          12 230 vstem
          109 409 rmoveto
          -26 callsubr
          -118 -667 rmoveto
          58 hlineto
          81 151 18 107 -71 callgsubr
          -20 -117 rlineto
          44 hlineto
          endchar
        </CharString>
        <CharString name="seven">
          -68 21 -21 590 96 hstem
          84 506 vstem
          84 hmoveto
          121 hlineto
          3 18 2 14 3 16 48 238 171 192 147 143 11 65 rcurveline
          -488 hlineto
          -17 -96 rlineto
          344 hlineto
          -138 -142 -166 -216 -41 -232 rrcurveto
          endchar
        </CharString>
        <CharString name="seveneighths">
          29 callgsubr
          265 62 12 -20 hstemhm
          471 71 -34 70 83 70 -50 71 hintmask 1111001100000000
          18 -12 rmoveto
          85 hlineto
          hintmask 1110101100000000
          671 710 rlineto
          -85 hlineto
          -573 -371 rmoveto
          79 hlineto
          hintmask 1111001100000000
          12 123 89 106 86 84 8 46 rcurveline
          -261 hlineto
          -11 -62 rlineto
          174 hlineto
          hintmask 1110101100000000
          -73 -73 -81 -103 -22 -121 rrcurveto
          hintmask 1111010100000000
          475 61 callsubr
          -26 16 hvcurveto
          hintmask 1111001010000000
          38 21 22 34 36 vvcurveto
          50 -36 38 -77 -79 -52 28 callsubr
          hintmask 1111010100000000
          35 callgsubr
          86 vhcurveto
          hintmask 1111001010000000
          30 219 rmoveto
          -28 -15 14 24 35 24 20 35 28 16 -13 -24 -35 -29 -21 -31 hvcurveto
          hintmask 1111010100000000
          -28 32 callgsubr
          -33 -21 -35 hvcurveto
          endchar
        </CharString>
        <CharString name="six">
          -68 -12 85 284 83 173 85 hstemhm
          24 104 266 109 -82 106 hintmask 11111000
          242 -12 rmoveto
          140 121 108 165 106 -59 73 -130 -70 -59 -31 -34 -35 hvcurveto
          hintmask 11110100
          146 29 42 92 112 hhcurveto
          60 28 -32 -58 -12 -1 -13 -2 -14 hvcurveto
          104 hlineto
          3 18 2 18 17 vvcurveto
          95 -56 66 -134 -154 -101 -93 -281 -46 vhcurveto
          -8 -47 -4 -41 -35 vvcurveto
          hintmask 11111000
          -159 81 -54 137 vhcurveto
          -5 85 rmoveto
          -75 -34 45 66 95 62 78 100 75 29 -46 -64 -89 -58 -85 -99 hvcurveto
          endchar
        </CharString>
        <CharString name="slash">
          -346 735 -20 hstem
          -68 414 vstem
          -68 -49 rmoveto
          78 hlineto
          336 784 rlineto
          -78 hlineto
          endchar
        </CharString>
        <CharString name="space">
          -346 endchar
        </CharString>
        <CharString name="sterling">
          -68 0 89 208 85 231 31 callgsubr
          49 208 rlineto
          163 hlineto
          14 85 rlineto
          -162 hlineto
          24 132 -13 callsubr
          -21 -117 rlineto
          -86 hlineto
          -14 -85 rlineto
          86 hlineto
          -37 -208 rlineto
          -71 hlineto
          endchar
        </CharString>
        <CharString name="summation">
          89 -128 99 660 92 -81 81 hstemhm
          -37 762 hintmask 11010000
          -37 -128 rmoveto
          630 hlineto
          19 99 rlineto
          -482 hlineto
          1 4 349 335 -225 317 rlineto
          4 454 vlineto
          16 92 rlineto
          -602 hlineto
          hintmask 10110000
          -14 -81 240 -339 -372 -357 rlineto
          endchar
        </CharString>
        <CharString name="t">
          -329 -11 37 callgsubr
          hintmask 00000000
          hintmask 11100000
          143 -11 -77 callsubr
          endchar
        </CharString>
        <CharString name="tbar">
          -329 -11 84 187 65 116 85 hstemhm
          4 304 -269 106 hintmask 11110000
          292 441 rmoveto
          16 85 rlineto
          -90 hlineto
          34 147 -70 callsubr
          hintmask 11101000
          -26 -147 rlineto
          -64 hlineto
          -15 -85 rlineto
          64 hlineto
          -20 -116 rlineto
          -65 hlineto
          -11 -65 rlineto
          64 hlineto
          -19 -108 rlineto
          -6 -37 -4 -24 -13 vvcurveto
          -48 25 -41 79 22 32 6 8 19 vhcurveto
          12 70 rlineto
          -49 hlineto
          -23 -11 11 21 4 1 11 1 7 hvcurveto
          24 133 rlineto
          89 hlineto
          12 65 rlineto
          -90 hlineto
          21 116 rlineto
          endchar
        </CharString>
        <CharString name="tcaron">
          -217 -11 84 368 85 -25 25 84 102 hstemhm
          36 445 -442 106 hintmask 00000000
          hintmask 10111000
          342 501 rmoveto
          53 hlineto
          69 117 17 94 rlineto
          -101 hlineto
          -18 -102 rlineto
          40 hlineto
          hintmask 11010100
          -259 -621 -77 callsubr
          endchar
        </CharString>
        <CharString name="thorn">
          -152 -21 161 86 377 87 189 -20 hstem
          425 107 vstem
          1 callgsubr
          -68 63 -112 -59 -54 -26 -46 -39 hvcurveto
          -5 hlineto
          46 261 rlineto
          -103 hlineto
          123 -653 rmoveto
          -75 -33 41 76 54 callgsubr
          -127 -47 -129 -117 hvcurveto
          endchar
        </CharString>
        <CharString name="three">
          -68 -12 85 233 85 222 85 hstemhm
          13 105 280 105 -65 108 hintmask 11111000
          243 -12 rmoveto
          143 117 85 138 74 -41 47 -59 20 hvcurveto
          1 4 rlineto
          hintmask 11110100
          77 31 65 50 100 vvcurveto
          104 -83 57 -129 -124 -107 -73 -123 -17 vhcurveto
          -2 -13 rlineto
          104 hlineto
          2 12 rlineto
          62 7 53 50 84 hhcurveto
          58 46 -25 -59 -94 -76 -44 -73 hvcurveto
          -69 hlineto
          -15 -85 rlineto
          66 hlineto
          hintmask 11111000
          67 60 -18 -71 -100 -75 -44 -87 -76 -42 31 59 12 2 15 3 15 hvcurveto
          -104 hlineto
          -5 -22 -1 -17 -13 vvcurveto
          -101 78 -64 152 vhcurveto
          endchar
        </CharString>
        <CharString name="threeeighths">
          29 callgsubr
          -32 59 100 60 93 59 hstemhm
          62 70 -34.5 69 86.5 71 -49 70 153 71 -34 69 84 70 -50 70 hintmask 1101111010011000
          50 -12 -25 callgsubr
          -536 -371 rmoveto
          74 65 46 72 34 -17 24 -29 15 hvcurveto
          2 vlineto
          hintmask 1101110101011000
          40 18 27 26 47 vvcurveto
          57 -45 30 -70 -66 -55 -40 -62 -10 vhcurveto
          -3 -17 rlineto
          70 hlineto
          1 11 rlineto
          34 6 27 15 29 hhcurveto
          26 20 -10 -27 -38 -34 -18 -34 hvcurveto
          hintmask 1101110110011000
          32 callsubr
          hintmask 1101111010011000
          -33 -19 14 26 3 0 7 4 14 hvcurveto
          -70 hlineto
          -3 -15 -1 -13 -8 vvcurveto
          -54 43 -33 80 vhcurveto
          hintmask 1101111010101000
          433 61 callsubr
          -27 16 hvcurveto
          hintmask 1110111010010100
          56 callgsubr
          -35 38 -77 -79 -52 28 callsubr
          hintmask 1101111010101000
          35 callgsubr
          86 vhcurveto
          hintmask 1110111010010100
          29 219 rmoveto
          -27 -16 14 24 35 25 20 35 28 16 -13 -24 -35 -29 -21 -32 hvcurveto
          hintmask 1101111010101000
          -27 32 callgsubr
          -34 -21 -34 hvcurveto
          endchar
        </CharString>
        <CharString name="threequarters">
          62 callgsubr
          188 59 100 60 93 59 hstemhm
          71 71 -35 69 87 70 -49 71 hintmask 0000000000000000
          hintmask 0101111010000000
          59 -12 -25 callgsubr
          -535 -371 rmoveto
          74 64 46 72 34 -17 24 -29 15 hvcurveto
          1 2 rlineto
          hintmask 1001110101000000
          39 18 28 27 callgsubr
          2 11 rlineto
          34 5 53 callsubr
          -33 hvcurveto
          hintmask 1001110110000000
          -30 hlineto
          -11 -60 rlineto
          31 hlineto
          30 26 -9 -30 -43 -33 -18 -37 hvcurveto
          hintmask 1001111010000000
          7 callgsubr
          -1 -13 -8 vvcurveto
          hintmask 0101111010000000
          -54 43 -33 81 vhcurveto
          hintmask 1001111010000000
          427 -327 rmoveto
          69 hlineto
          hintmask 0011111010000000
          14 79 rlineto
          43 hlineto
          hintmask 1001111010000000
          53 callgsubr
          -14 -34 -14 -28 -15 44 callsubr
          -77 hlineto
          hintmask 0011111010000000
          -37 -89 -39 -76 -51 -67 -10 -55 rcurveline
          159 hlineto
          endchar
        </CharString>
        <CharString name="tilde">
          -291 613 39 callsubr
          -8 349 hintmask 00000000
          hintmask 10100000
          -8 26 callgsubr
          hintmask 01100000
          -25 callsubr
          hintmask 10100000
          49 36 -33 54 hhcurveto
          hintmask 01100000
          63 35 51 59 10 hvcurveto
          -67 hlineto
          hintmask 10100000
          -54 callgsubr
          -49 -36 33 -54 hhcurveto
          -63 -34 -51 -59 -10 hvcurveto
          endchar
        </CharString>
        <CharString name="trademark">
          376 281 94 246 66 hstem
          107 839 vstem
          188 282 rmoveto
          70 hlineto
          60 339 rlineto
          140 hlineto
          11 66 rlineto
          -351 hlineto
          -11 -66 rlineto
          141 hlineto
          201 -340 rmoveto
          64 hlineto
          57 320 rlineto
          4 hlineto
          51 -320 rlineto
          67 hlineto
          166 321 rlineto
          3 hlineto
          -56 -321 rlineto
          70 hlineto
          71 406 -70 callsubr
          -158 -312 rlineto
          -5 hlineto
          -48 312 rlineto
          -104 hlineto
          endchar
        </CharString>
        <CharString name="two">
          -68 0 96 515 87 hstem
          440 107 vstem
          -14 hmoveto
          473 hlineto
          17 96 rlineto
          -341 hlineto
          7 10 10 11 13 13 rrcurveto
          118 107 264 91 203 vvcurveto
          101 -65 66 -137 -132 -128 -68 -180 -10 vhcurveto
          103 hlineto
          8 41 rlineto
          69 14 42 51 96 hhcurveto
          76 26 -39 -39 -200 -409 -69 -40 -233 hvcurveto
          endchar
        </CharString>
        <CharString name="u">
          -47 callgsubr
          hstemhm
          35 107 hintmask 10110000
          190 -12 -69 callsubr
          hintmask 01110000
          -78 callgsubr
          hintmask 10110000
          -103 callsubr
          vhcurveto
          endchar
        </CharString>
        <CharString name="uacute">
          -15 callsubr
          25 callsubr
          286 591 -95 callgsubr
          -203 -10 callsubr
          hintmask 01111000
          -78 callgsubr
          hintmask 10111000
          -103 callsubr
          vhcurveto
          endchar
        </CharString>
        <CharString name="ubreve">
          -47 callgsubr
          94 58 callgsubr
          35 107 53 72 hintmask 10101110
          334 600 -85 callsubr
          hintmask 10110110
          -53 callgsubr
          hintmask 10101110
          -87 callgsubr
          -144 -612 -69 callsubr
          hintmask 01101110
          -78 callgsubr
          hintmask 10101110
          -103 callsubr
          vhcurveto
          endchar
        </CharString>
        <CharString name="ucircumflex">
          -47 callgsubr
          82 57 callgsubr
          35 107 hintmask 10110100
          174 17 callgsubr
          hintmask 10101100
          69 76 rlineto
          hintmask 10110100
          -98 callsubr
          -113 -10 callsubr
          hintmask 01110100
          -78 callgsubr
          hintmask 10110100
          -103 callsubr
          vhcurveto
          endchar
        </CharString>
        <CharString name="udieresis">
          -47 callgsubr
          115 102 25 callsubr
          194 621 -56 callsubr
          hintmask 01111000
          -78 callgsubr
          hintmask 10111000
          -103 callsubr
          vhcurveto
          endchar
        </CharString>
        <CharString name="ugrave">
          -15 callsubr
          25 callsubr
          292 591 -78 callsubr
          -17 -732 -69 callsubr
          hintmask 01111000
          -78 callgsubr
          hintmask 10111000
          -103 callsubr
          vhcurveto
          endchar
        </CharString>
        <CharString name="uhorn">
          -47 callgsubr
          100 117 25 callsubr
          564 723 -62 callgsubr
          -20 -44 -38 -25 -57 -11 rrcurveto
          -39 47 callsubr
          -103 callsubr
          66 67 35 48 39 vhcurveto
          7 hlineto
          hintmask 01111000
          -42 callsubr
          endchar
        </CharString>
        <CharString name="uhungarumlaut">
          -15 callsubr
          25 callsubr
          212 591 -61 callgsubr
          -266 -10 callsubr
          hintmask 01111000
          -78 callgsubr
          hintmask 10111000
          -103 callsubr
          vhcurveto
          endchar
        </CharString>
        <CharString name="umacron">
          -47 callgsubr
          116 77 25 callsubr
          188 622 -67 callsubr
          -11 -711 -69 callsubr
          hintmask 01111000
          -78 callgsubr
          hintmask 10111000
          -103 callsubr
          vhcurveto
          endchar
        </CharString>
        <CharString name="underscore">
          -68 -135 67 hstem
          -70 566 vstem
          -70 -135 rmoveto
          555 hlineto
          11 67 rlineto
          -556 hlineto
          endchar
        </CharString>
        <CharString name="underscoredbl">
          -72 -246 65 48 65 hstem
          -84 582 vstem
          -65 -133 rmoveto
          551 hlineto
          12 65 rlineto
          -551 hlineto
          -31 -178 rmoveto
          551 hlineto
          11 65 rlineto
          -550 hlineto
          endchar
        </CharString>
        <CharString name="uni00A0">
          -346 endchar
        </CharString>
        <CharString name="uni00AD">
          6 callgsubr
        </CharString>
        <CharString name="uni00B2">
          -291 333 62 244 60 hstem
          82 63 callsubr
          70 vstem
          35 333 rmoveto
          253 hlineto
          11 62 rlineto
          -164 hlineto
          44 60 callsubr
          46 callsubr
          5 20 31 callsubr
        </CharString>
        <CharString name="uni00B3">
          -291 327 59 100 60 93 59 hstemhm
          49 70 -34 69 86 71 -49 71 hintmask 11110100
          173 327 rmoveto
          74 64 46 72 34 -16 24 -30 15 hvcurveto
          2 vlineto
          hintmask 11101010
          41 18 27 27 callgsubr
          1 11 rlineto
          34 6 53 callsubr
          -34 hvcurveto
          hintmask 11101100
          32 callsubr
          hintmask 11110100
          -33 -19 14 26 3 0 7 4 14 hvcurveto
          -69 hlineto
          -4 -15 -1 -13 -8 vvcurveto
          -54 43 -33 81 vhcurveto
          endchar
        </CharString>
        <CharString name="uni00B5">
          -50 callgsubr
        </CharString>
        <CharString name="uni00B9">
          -291 329 61 213 45 38 -20 hstem
          51 244 vstem
          51 329 rmoveto
          233 hlineto
          11 61 rlineto
          -78 hlineto
          52 296 rlineto
          -34 hlineto
          -38 -19 -56 -12 callgsubr
          endchar
        </CharString>
        <CharString name="uni0162">
          -13 15 callgsubr
          56 -21 590 96 hstemhm
          266 84 hintmask 10111100
          83 686 rmoveto
          -17 -96 rlineto
          228 hlineto
          -103 -590 rlineto
          19 hlineto
          -27 -77 rlineto
          47 -28 callgsubr
          hintmask 01111100
          -9 -49 rlineto
          hintmask 10111100
          -19 callgsubr
          12 35 rlineto
          22 hlineto
          104 590 rlineto
          228 hlineto
          18 96 rlineto
          endchar
        </CharString>
        <CharString name="uni0163">
          -329 15 callgsubr
          24 37 callgsubr
          -23 84 hintmask 10011010
          203 441 rmoveto
          89 hlineto
          16 85 rlineto
          -90 hlineto
          34 147 -70 callsubr
          hintmask 10111100
          -26 -147 rlineto
          -64 hlineto
          -15 -85 rlineto
          64 hlineto
          -51 -289 rlineto
          -6 -37 -4 -24 -13 vvcurveto
          -28 8 -25 22 -16 vhcurveto
          hintmask 10111010
          -30 -86 rlineto
          47 -28 callgsubr
          hintmask 01011010
          -9 -49 rlineto
          hintmask 10111010
          -19 callgsubr
          hintmask 10011100
          8 24 rlineto
          12 hlineto
          22 32 6 8 19 hvcurveto
          12 70 rlineto
          -49 hlineto
          -23 -11 11 21 4 1 11 1 7 hvcurveto
          endchar
        </CharString>
        <CharString name="uni018F">
          134 -12 92 200 93 233 92 hstem
          44 112 460 112 vstem
          332 -12 rmoveto
          122 92 33 69 64 hvcurveto
          74 77 44 148 112 vvcurveto
          172 -110 99 -183 -95 -75 -16 -33 -58 vhcurveto
          -71 -40 -44 -65 -16 -92 rrcurveto
          107 hlineto
          104 18 82 50 134 hhcurveto
          127 72 -55 -121 -17 -1 -19 -3 -21 hvcurveto
          -550 hlineto
          -10 -57 rlineto
          -5 -28 -3 -27 -25 vvcurveto
          -157 104 -91 184 vhcurveto
          16 92 rmoveto
          -116 -76 42 108 15 1 17 3 18 hvcurveto
          432 hlineto
          -142 -39 -73 -58 -132 hhcurveto
          endchar
        </CharString>
        <CharString name="uni019D">
          98 -182 82 121 -23 callsubr
          hstem
          -104 812 vstem
          -26 -182 rmoveto
          96 29 64 63 11 hvcurveto
          83 467 15 95 5 1 11 -19 15 -31 15 -28 rlinecurve
          234 -430 rlineto
          99 hlineto
          121 686 rlineto
          -105 hlineto
          -77 -440 -3 -18 -4 -28 -3 -15 rlinecurve
          -4 hlineto
          -6 10 -12 24 -8 16 -248 451 rcurveline
          -102 hlineto
          -130 -739 rlineto
          -30 -5 -18 -17 -30 hhcurveto
          -45 hlineto
          -12 -69 rlineto
          -6 18 33 -7 27 hhcurveto
          endchar
        </CharString>
        <CharString name="uni01C4">
          709 0 95 496 95 47 135 21 callsubr
          1057 733 -93 callgsubr
          -960 -868 rmoveto
          -75 callsubr
          -246 hlineto
          549 -686 rmoveto
          -77 callgsubr
          -552 40 -72 callgsubr
          endchar
        </CharString>
        <CharString name="uni01C5">
          598 0 85 -85 95 346 85 62 135 -132 95 hstemhm
          572 114 hintmask 00000000
          hintmask 10110100
          981 588 -93 callgsubr
          -884 -723 rmoveto
          283 hlineto
          116 96 39 70 68 hvcurveto
          70 73 38 106 127 vvcurveto
          hintmask 01101100
          186 -112 85 -192 vhcurveto
          -246 hlineto
          7 -591 -72 callgsubr
          hintmask 10101100
          403 -95 rmoveto
          -80 callgsubr
          endchar
        </CharString>
        <CharString name="uni01C6">
          449 -12 87 -75 85 356 85 -74 86 50 135 hstemhm
          20 107 hintmask 00000000
          hintmask 10101100
          -28 callsubr
          hintmask 01011100
          -64 callgsubr
          hintmask 10101100
          -145 69 -63 113 vhcurveto
          hintmask 01101100
          630 600 -93 callgsubr
          -203 -723 rmoveto
          -80 callgsubr
          hintmask 10011100
          -324 24 -42 callgsubr
        </CharString>
        <CharString name="uni01C7">
          466 -12 94 -82 96 590 -20 hstemhm
          569 111 hintmask 01110000
          -37 callsubr
          hintmask 10110000
          624 -698 -79 callgsubr
        </CharString>
        <CharString name="uni01C8">
          188 -182 82 100 96 430 -20 111 106 -37 -20 hstemhm
          15 801 hintmask 11110100
          694 7 callsubr
          -698 -723 rmoveto
          -7 callgsubr
          hintmask 11101100
          104 590 -70 callsubr
          406 -868 -82 callgsubr
        </CharString>
        <CharString name="uni01C9">
          -146 20 callsubr
          111 106 hstem
          13 469 vstem
          13 hmoveto
          103 hlineto
          -32 callsubr
          220 -106 -31 callsubr
          -171 -905 -82 callgsubr
        </CharString>
        <CharString name="uni01CA">
          615 -12 94 -61 -23 callsubr
          hstemhm
          718 111 hintmask 00000000
          hintmask 01110000
          -36 callsubr
          hintmask 10110000
          773 -698 -79 callgsubr
        </CharString>
        <CharString name="uni01CB">
          337 20 callsubr
          111 106 -37 -20 hstemhm
          15 950 hintmask 11110100
          843 7 callsubr
          -847 -723 rmoveto
          105 hlineto
          77 441 4 22 4 28 3 16 rlinecurve
          5 1 7 -12 12 -24 11 -21 rlinecurve
          245 -451 rlineto
          99 hlineto
          hintmask 11101100
          121 686 rlineto
          -105 hlineto
          -77 -440 -3 -18 -4 -28 -3 -15 rlinecurve
          -4 hlineto
          -6 10 -12 24 -8 16 -248 451 rcurveline
          -102 hlineto
          555 -868 -82 callgsubr
        </CharString>
        <CharString name="uni01CC">
          188 -182 82 121 -5 callsubr
          111 106 hstemhm
          414 107 hintmask 11101100
          694 7 callsubr
          -699 -723 rmoveto
          103 hlineto
          52 293 rlineto
          -96 callsubr
          -66 -67 -35 -48 -39 vhcurveto
          -7 hlineto
          hintmask 11011100
          71 -80 vlineto
          435 -708 -82 callgsubr
        </CharString>
        <CharString name="uni01CD">
          -2 callsubr
          16 callgsubr
          376 733 -93 callgsubr
          -339 -868 -102 callgsubr
        </CharString>
        <CharString name="uni01CE">
          -68 callgsubr
          82 135 -21 callgsubr
          hintmask 11011100
          358 588 rmoveto
          129 135 rlineto
          -102 hlineto
          -67 -76 -45 76 rlineto
          -93 hlineto
          82 -135 rlineto
          191 -488 rmoveto
          hintmask 10111100
          -75 callgsubr
          hintmask 11011100
          -105 callgsubr
          -43 callgsubr
          -79 callsubr
        </CharString>
        <CharString name="uni01CF">
          -14 callgsubr
          67 135 hstem
          24 362 vstem
          161 733 -93 callgsubr
          -55 -868 -68 callsubr
        </CharString>
        <CharString name="uni01D0">
          -34 callgsubr
          82 135 hstem
          28 333 vstem
          136 588 -93 callgsubr
          -26 -29 callgsubr
        </CharString>
        <CharString name="uni01D1">
          8 callgsubr
          -51 callgsubr
          394 733 -93 callgsubr
          26 -879 -107 callgsubr
          endchar
        </CharString>
        <CharString name="uni01D2">
          -34 callsubr
          50 135 hstem
          -38 callgsubr
          vstem
          271 588 -93 callgsubr
          56 -96 callgsubr
        </CharString>
        <CharString name="uni01D3">
          -49 callsubr
          67 135 -24 callgsubr
          387 733 -93 callgsubr
          15 -880 -104 callgsubr
          endchar
        </CharString>
        <CharString name="uni01D4">
          -47 callgsubr
          82 135 25 callsubr
          285 588 -93 callgsubr
          -13 -10 callsubr
          hintmask 01111000
          -78 callgsubr
          hintmask 10111000
          -103 callsubr
          vhcurveto
          endchar
        </CharString>
        <CharString name="uni01D5">
          -49 callsubr
          100 102 66 77 -24 callgsubr
          320 934 -67 callsubr
          -37 -245 -91 callgsubr
          -188 -880 -104 callgsubr
          endchar
        </CharString>
        <CharString name="uni01D6">
          -47 callgsubr
          115 102 66 77 hstemhm
          35 107 hintmask 10111100
          218 789 -67 callsubr
          -37 -245 -81 callgsubr
        </CharString>
        <CharString name="uni01D7">
          -49 callsubr
          100 102 35 132 -24 callgsubr
          418 903 -95 callgsubr
          -229 -269 -91 callgsubr
          -188 -880 -104 callgsubr
          endchar
        </CharString>
        <CharString name="uni01D8">
          -47 callgsubr
          115 102 35 132 hstemhm
          35 107 hintmask 10111100
          316 758 -95 callgsubr
          -229 -269 -81 callgsubr
        </CharString>
        <CharString name="uni01D9">
          -49 callsubr
          100 102 32 135 -24 callgsubr
          417 900 -93 callgsubr
          -39 -269 -91 callgsubr
          -188 -880 -104 callgsubr
          endchar
        </CharString>
        <CharString name="uni01DA">
          -47 callgsubr
          115 102 32 135 hstemhm
          35 107 hintmask 10111100
          315 755 -93 callgsubr
          -39 -269 -81 callgsubr
        </CharString>
        <CharString name="uni01DB">
          -49 callsubr
          100 102 35 132 -24 callgsubr
          424 903 -78 callsubr
          -43 -266 -91 callgsubr
          -188 -880 -104 callgsubr
          endchar
        </CharString>
        <CharString name="uni01DC">
          -47 callgsubr
          115 102 35 132 hstemhm
          35 107 hintmask 10111100
          322 758 -78 callsubr
          -43 -266 -81 callgsubr
        </CharString>
        <CharString name="uni01EA">
          154 -182 66 105 -17 callgsubr
          hstem
          -17 callsubr
          185 93 200 114 vstem
          440 698 rmoveto
          -219 -140 -126 -222 -37 hvcurveto
          -5 -30 -3 -31 -33 vvcurveto
          -172 112 -95 190 16 15 1 1 15 vhcurveto
          -26 -24 -23 -31 -43 -45 callsubr
          1 vlineto
          140 44 89 115 28 172 rrcurveto
          5 30 3 31 31 vvcurveto
          171 -112 95 -190 vhcurveto
          180 -353 -57 callgsubr
          173 30 94 87 159 hhcurveto
          119 1 68 -65 -111 vvcurveto
          23 callgsubr
        </CharString>
        <CharString name="uni01EB">
          -182 66 104 86 379 85 hstem
          23 101 98 93 113 102 vstem
          306 538 rmoveto
          -161 -90 -89 -172 -27 hvcurveto
          -3 -28 -2 -26 -24 vvcurveto
          -72 callsubr
          8 8 0 1 8 hvcurveto
          -26 -24 -21 -30 -42 -45 callsubr
          1 vlineto
          88 35 52 81 19 124 rrcurveto
          4 29 3 26 25 vvcurveto
          129 -1 -86 80 -137 hhcurveto
          117 -272 rmoveto
          -19 -134 -53 -59 -100 1 -82 -1 -43 43 -2 75 rrcurveto
          20 1 24 4 25 vhcurveto
          134 19 53 59 100 hhcurveto
          82 43 -42 -76 2 hvcurveto
          -20 -2 -24 -3 -25 vhcurveto
          endchar
        </CharString>
        <CharString name="uni01F1">
          709 0 95 496 95 21 callsubr
          15 hmoveto
          -75 callsubr
          -246 hlineto
          549 -686 rmoveto
          -77 callgsubr
          -552 40 -72 callgsubr
          endchar
        </CharString>
        <CharString name="uni01F2">
          598 0 85 -85 95 346 85 65 95 hstemhm
          572 114 hintmask 10111000
          15 hmoveto
          -75 callsubr
          -246 hlineto
          hintmask 01111000
          7 -591 -72 callgsubr
          hintmask 10111000
          403 -95 rmoveto
          -80 callgsubr
          endchar
        </CharString>
        <CharString name="uni01F3">
          449 -12 87 -75 85 356 85 -74 86 185 -20 hstemhm
          20 107 hintmask 00000000
          hintmask 10101100
          -28 callsubr
          hintmask 01011100
          -64 callgsubr
          hintmask 10101100
          -145 69 -63 113 vhcurveto
          hintmask 01101100
          345 12 rmoveto
          -80 callgsubr
          hintmask 10011100
          -324 24 -42 callgsubr
        </CharString>
        <CharString name="uni01F4">
          -35 callsubr
          38 132 -6 callsubr
          hintmask 10111110
          615 865 -39 callgsubr
          241 -284 -93 callsubr
        </CharString>
        <CharString name="uni01F5">
          -36 callgsubr
          85 132 hstemhm
          21 107 hintmask 11101100
          267 591 -95 callgsubr
          -176 -905 -27 callgsubr
          hintmask 11011100
          10 callgsubr
          hintmask 11101100
          -94 callgsubr
        </CharString>
        <CharString name="uni0200">
          -69 callgsubr
          50 132 16 callgsubr
          323 736 -85 callgsubr
          -450 -865 -102 callgsubr
        </CharString>
</ttFont>
